<mxfile host="65bd71144e">
    <diagram id="_G2sKBX9bRU1wC-wuk9R" name="第 1 页">
        <mxGraphModel dx="1751" dy="1195" grid="0" gridSize="10" guides="1" tooltips="1" connect="1" arrows="1" fold="1" page="0" pageScale="1" pageWidth="827" pageHeight="1169" background="#ffffff" math="0" shadow="0">
            <root>
                <mxCell id="0"/>
                <mxCell id="1" parent="0"/>
                <mxCell id="206" value="" style="rounded=0;whiteSpace=wrap;html=1;fontSize=14;" parent="1" vertex="1">
                    <mxGeometry x="142" y="1382" width="835" height="363" as="geometry"/>
                </mxCell>
                <mxCell id="2" value="" style="rounded=0;whiteSpace=wrap;html=1;shadow=0;glass=0;labelBackgroundColor=none;fontSize=11;strokeColor=#666666;fillColor=#f5f5f5;fontColor=#333333;" parent="1" vertex="1">
                    <mxGeometry x="70" y="380" width="1030" height="426" as="geometry"/>
                </mxCell>
                <mxCell id="43" value="" style="rounded=1;absoluteArcSize=1;arcSize=2;html=1;shadow=0;dashed=0;strokeColor=#82b366;fontSize=12;align=center;verticalAlign=top;spacing=10;spacingTop=-4;fillColor=#d5e8d4;" parent="1" vertex="1">
                    <mxGeometry x="631.53" y="437.25" width="421" height="301" as="geometry"/>
                </mxCell>
                <mxCell id="3" value="" style="rounded=1;absoluteArcSize=1;arcSize=2;html=1;shadow=0;dashed=0;strokeColor=none;fontSize=12;align=center;verticalAlign=top;spacing=10;spacingTop=-4;fillColor=#dae8fc;" parent="1" vertex="1">
                    <mxGeometry x="347" y="503.5" width="218" height="150" as="geometry"/>
                </mxCell>
                <mxCell id="4" style="edgeStyle=orthogonalEdgeStyle;rounded=0;orthogonalLoop=1;jettySize=auto;html=1;strokeColor=#4284F3;strokeWidth=2;" parent="1" source="6" target="10" edge="1">
                    <mxGeometry relative="1" as="geometry"/>
                </mxCell>
                <mxCell id="5" value="安装" style="edgeLabel;html=1;align=center;verticalAlign=middle;resizable=0;points=[];" parent="4" vertex="1" connectable="0">
                    <mxGeometry x="-0.0252" y="-1" relative="1" as="geometry">
                        <mxPoint as="offset"/>
                    </mxGeometry>
                </mxCell>
                <mxCell id="6" value="" style="strokeColor=#dddddd;fillColor=#ffffff;shadow=0;strokeWidth=1;rounded=1;absoluteArcSize=1;arcSize=2;fontSize=11;fontColor=#9E9E9E;align=center;html=1;" parent="1" vertex="1">
                    <mxGeometry x="662.53" y="497.25" width="170" height="68.5" as="geometry"/>
                </mxCell>
                <mxCell id="7" value="&lt;font color=&quot;#000000&quot;&gt;Plugin Nacos&lt;br&gt;&lt;/font&gt;CRD&lt;hr&gt;&lt;span style=&quot;font-size: 11px&quot;&gt;KubeGems Engine&lt;br&gt;&lt;br&gt;&lt;/span&gt;" style="dashed=0;connectable=0;html=1;fillColor=#5184F3;strokeColor=none;shape=mxgraph.gcp2.hexIcon;prIcon=container_engine;part=1;labelPosition=right;verticalLabelPosition=middle;align=left;verticalAlign=top;spacingLeft=5;fontColor=#999999;fontSize=12;spacingTop=-8;" parent="6" vertex="1">
                    <mxGeometry width="44" height="39" relative="1" as="geometry">
                        <mxPoint x="5" y="7" as="offset"/>
                    </mxGeometry>
                </mxCell>
                <mxCell id="10" value="" style="strokeColor=#dddddd;fillColor=#ffffff;shadow=0;strokeWidth=1;rounded=1;absoluteArcSize=1;arcSize=2;fontSize=11;fontColor=#9E9E9E;align=center;html=1;" parent="1" vertex="1">
                    <mxGeometry x="662.53" y="633.25" width="170" height="68.5" as="geometry"/>
                </mxCell>
                <mxCell id="11" value="&lt;font color=&quot;#000000&quot;&gt;Nacos Cluster&lt;/font&gt;&lt;br&gt;Service&lt;hr&gt;&lt;span style=&quot;font-size: 11px&quot;&gt;KubeGems Engine&lt;br&gt;&lt;br&gt;&lt;/span&gt;" style="dashed=0;connectable=0;html=1;fillColor=#5184F3;strokeColor=none;shape=mxgraph.gcp2.hexIcon;prIcon=container_engine;part=1;labelPosition=right;verticalLabelPosition=middle;align=left;verticalAlign=top;spacingLeft=5;fontColor=#999999;fontSize=12;spacingTop=-8;" parent="10" vertex="1">
                    <mxGeometry width="44" height="39" relative="1" as="geometry">
                        <mxPoint x="5" y="7" as="offset"/>
                    </mxGeometry>
                </mxCell>
                <mxCell id="49" style="edgeStyle=orthogonalEdgeStyle;html=1;exitX=1;exitY=0.5;exitDx=0;exitDy=0;entryX=0;entryY=0.5;entryDx=0;entryDy=0;strokeColor=#4284F3;strokeWidth=2;" parent="1" source="20" target="6" edge="1">
                    <mxGeometry relative="1" as="geometry"/>
                </mxCell>
                <mxCell id="51" value="初始化插件" style="edgeLabel;html=1;align=center;verticalAlign=middle;resizable=0;points=[];" parent="49" vertex="1" connectable="0">
                    <mxGeometry x="0.0008" y="-2" relative="1" as="geometry">
                        <mxPoint as="offset"/>
                    </mxGeometry>
                </mxCell>
                <mxCell id="20" value="" style="strokeColor=#dddddd;fillColor=#ffffff;shadow=0;strokeWidth=1;rounded=1;absoluteArcSize=1;arcSize=2;fontSize=11;fontColor=#9E9E9E;align=center;html=1;" parent="1" vertex="1">
                    <mxGeometry x="371" y="553.5" width="170" height="68.5" as="geometry"/>
                </mxCell>
                <mxCell id="21" value="&lt;font color=&quot;#000000&quot;&gt;Plugins&lt;br&gt;&lt;/font&gt;CRD&lt;hr&gt;&lt;span style=&quot;font-size: 11px&quot;&gt;KubeGems Engine&lt;br&gt;&lt;br&gt;&lt;/span&gt;" style="dashed=0;connectable=0;html=1;fillColor=#5184F3;strokeColor=none;shape=mxgraph.gcp2.hexIcon;prIcon=container_engine;part=1;labelPosition=right;verticalLabelPosition=middle;align=left;verticalAlign=top;spacingLeft=5;fontColor=#999999;fontSize=12;spacingTop=-8;" parent="20" vertex="1">
                    <mxGeometry width="44" height="39" relative="1" as="geometry">
                        <mxPoint x="5" y="7" as="offset"/>
                    </mxGeometry>
                </mxCell>
                <mxCell id="34" style="edgeStyle=orthogonalEdgeStyle;rounded=0;orthogonalLoop=1;jettySize=auto;html=1;entryX=0;entryY=0.5;entryDx=0;entryDy=0;strokeColor=#4284F3;strokeWidth=2;elbow=vertical;curved=1;" parent="1" source="36" target="20" edge="1">
                    <mxGeometry relative="1" as="geometry"/>
                </mxCell>
                <mxCell id="35" value="启用插件&lt;br&gt;&amp;nbsp;Nacos" style="edgeLabel;html=1;align=center;verticalAlign=middle;resizable=0;points=[];" parent="34" vertex="1" connectable="0">
                    <mxGeometry x="-0.2628" y="-5" relative="1" as="geometry">
                        <mxPoint x="5" y="-8" as="offset"/>
                    </mxGeometry>
                </mxCell>
                <mxCell id="36" value="" style="strokeColor=#dddddd;fillColor=#ffffff;shadow=0;strokeWidth=1;rounded=1;absoluteArcSize=1;arcSize=2;fontSize=11;fontColor=#9E9E9E;align=center;html=1;" parent="1" vertex="1">
                    <mxGeometry x="90" y="553.5" width="170" height="68.5" as="geometry"/>
                </mxCell>
                <mxCell id="37" value="&lt;font color=&quot;#000000&quot;&gt;Gems UI&lt;/font&gt;&lt;br&gt;Service&lt;hr&gt;&lt;span style=&quot;font-size: 11px&quot;&gt;KubeGems Engine&lt;br&gt;&lt;br&gt;&lt;/span&gt;" style="dashed=0;connectable=0;html=1;fillColor=#5184F3;strokeColor=none;shape=mxgraph.gcp2.hexIcon;prIcon=container_engine;part=1;labelPosition=right;verticalLabelPosition=middle;align=left;verticalAlign=top;spacingLeft=5;fontColor=#999999;fontSize=12;spacingTop=-8;" parent="36" vertex="1">
                    <mxGeometry width="44" height="39" relative="1" as="geometry">
                        <mxPoint x="5" y="7" as="offset"/>
                    </mxGeometry>
                </mxCell>
                <mxCell id="38" value="&lt;font color=&quot;#5e5e5e&quot;&gt;&lt;b&gt;KubeGems&lt;/b&gt;&amp;nbsp;Nacos&lt;/font&gt;" style="whiteSpace=wrap;html=1;fontSize=14;strokeColor=#5C5C5C;strokeWidth=0;fillColor=#FFFFFF;align=center;opacity=0;fontFamily=Lucida Console;fontColor=#AAAAAA;" parent="1" vertex="1">
                    <mxGeometry x="103" y="380" width="157" height="60" as="geometry"/>
                </mxCell>
                <mxCell id="39" value="" style="shape=image;verticalLabelPosition=bottom;labelBackgroundColor=#ffffff;verticalAlign=top;aspect=fixed;imageAspect=0;image=data:image/png,iVBORw0KGgoAAAANSUhEUgAAA+gAAAPoBAMAAAC/jcnXAAAABGdBTUEAALGPC/xhBQAAAAFzUkdCAK7OHOkAAAAYUExURUdwTB+W9CCW8x6W9iCW8yCW9CCW8yGW80YbX+cAAAAHdFJOUwBN5yTDep2bgYbQAAAgAElEQVR42uydTW/byhWGRUtitrmCUG1vEBjauoYqb+26rbaq0IBbFb6FtjeOY/79xrbiiMP5OPNBiqKeZ1GgrWMlfHXI8555ZzgYAAAAAAAAAAAAAAAAAAAAAAAAAAAAAAAAAAAAAAAAAAAAAAAAAAAAAAAAAAAAAAAAAAAAAAAAAAAAAAAAAAAAAAAAAAAAAAAAAAAAAAAAAAAAAAAAAAAAAAAAAAAAAAAAAAAAAAAAAAAAAAAAAAAAAAAAAAAAAAAAAAAAAAAAAAAAAAAAAAAAAAAAAAAAAAAAAAAAAAAAAAAAAAAAAAAAAAAAAAAAAAAAAAAAAAAAAAAAAAAAAAAAAAAAAAAAAAAAAAAAAAAAAAAAAAAAAACcAJM11+DcWJSPqH5m5GVZPn3kOpwT2fyH6OXzFVfifBiuyleeuRTno/mu3HPJxTgXNuU7/+RqnAfX5QF3XI9zYFlWeOCK9J9xqbDlmpyHWTuEIc25mLVDGNL0nF2p4emKC9NjJqUWRnM9ZlEaYEhzLmbtkE9cnZ6atblZ9PKe69PLxt2mOUOafmq+s2qOXe8jRengEbt+JmYNu36OZg273ltyTbs+wa73mvoqy4sx32DX+9y411dZng39PHa9v2btrWfTLblh1/vBxujOMo3q2PU+cG0RVvOwx673gKX1Fp6Tqegh47qqdw4Dj13vn1lTzLjGrn/nuvXNrF05+zyGNCfNzjxgX9yZf4gtECfMxNyb578GMQxp+sTCbNZeUzQ//4vOrm+5fH0xa/cVmd9zEzq7vuYCnqJZmxvXU37e0N8t+Ri73o/G3WLWilorvyRT0QfNd2azNtFYcoY0PaCwmLU3SYvqCjqZip6btdevwP5ecG8Z0pCpOHGztq106i9fgb1Te8Cu94LcLN9+MLs+cGrr6v9FpuIkyZxm7eHQ1T1ahjTY9VNp3FfmdbNN9Vm9VOw6mYremrWDrvy62tiPseuniTkSty/siv/eOIc02PWTNGvrSh0rpburFv+UTMXpYYnE/TJrmqeBbUiDXe82Y5lZq/T6q6olL8hU9MasDXamccv+D9mGNNj1kzJrzwazVr89PNqGNNj1zrJzrbJ8tzUC7097MhWn3bhbzNohC8Wuz8lUnAiuSJxNuAmZip6aNdstuiBTcYpmzbLKsnK34AK7TqbiBMyaEom7F3X+d9VunyFNl82ac5Xlk/Br82C2AmQqukURaNY0D4g1Q5qTN2u5vPdelmQqTtqsbSvlK4xCLKqWnHMqOowzEicu0AmZih6YtZ3no3hTHdiTqehq4+6MxPk03UqmYkGm4jTN2mXAryNT0Wk25rWRRcirk9VMxYZMxSmYtXWlDfPuvMhUdB3vSJykMSRT0e3G3T8SJx/S2Ow6qh+NoEicfEhzZfaEZCq6a9ZCG20lU5EzpOkMzkhc+Ap44bTrDGk6YtakkTh/uz4lU9EJ3JG4mFocuu06Q5pemDWLXddtfCFT0bZZm7vM2jbNJ6wZ0nTYrPlF4gLsOpmKzpm156rdSvHAJVPRKVJE4vztOpmKY+KMxKUy0WQqTsespbvrkqnoCOkiceLm4c58j8GuH8msBUfiBDaBTEU3G/fLqiL3TXzHyFQcU/P4/Uu+qpOpODYb55HeyT+STEX3zNq6UpFNGOcpmYqOmbVtpQCbGZGRqThm495IJE6AkqnQDWlQpxnckbim+mgyFR0ya0ok7q7pz75nSHN0s5YsEie+y5CpOLZZSxeJkw9p1gxpWmRqMWvzNhpoxa4PyVQ0TtOROLFfJFPRf7Nmseu6IQ12vR2zVrTXRZGpOK5ZayASJzYQZCraoKVInPjbR6airWdpC5E4wXOGTEU7xBzp3ZRdtx0mil1v1Kwlj8SJfQSZijZKq6VInP+Qho0vrZi1RiNxAshUtGOSWozEBQxpyFT01Kxp/lZkKlo3a+MjlhSZinbN2rbyrD/WCgeZiobd0ZFXWaz9JZmKFhr345o1jZNcmxtOhjTht1BLJO7z8WdGZCpaM2uLLvRKZCrSYznSe9kNV0SmogWztu6AWdN8L7/b7Dqqez8xjxqJE0Cm4kzMmqbXJFPRsFlrMxIn+Iu6MxXY9WCzdpRInNyub6s3fOy6P85Vlg4NttVMxY5MRarGXTFr0T1x9tsPvnz58uM/Ew9pyFREDD0aOtJ7+NuXP/6uaPKP//0W8y1SMhUZmYqkZi06EvfX/9QVeeNf/043pMGuB3ZGukzx/nm5jWy1DTwG/14yFenNWrIjvYvSSvgcRc1ULMhUBFy+ZiJxjYlOpqJZsxYz1ryxi/4t/gb1wJAmqVkbx3dEI7votwlaEZtdZ0jja9ZSrLJkdtHjfBWZijCaPtJ7aBf9KsU31mbXyVSIGvfEkbidTfNoV0WmIrgDtkTioluhmU30r9H/AjIVKc3aNMz0ZOr/cGET/Xflh/9YB/4TsOueZZIyErecq7KNbaKva13fQ+DNikxFuFlbV6Tyfh7+pT6wHXr0cS+t/n+x602SPhI31Tlvy/D9SefvvE8SUTMVBXbdfK2SR+Im2nHLTN7HZWHP4JxMRbxZ29eKb3ls9DO2a7Pof+onOZdh96xfWyBW2HVvsxa2yrIp9YuwuVn0rWF85636lCFN2MwkMhK3Md1Ih/IhbBbssjinIsisRUbiJuan59wYoRiYRPd3WWQqnCSPxE0tLVMhXkzPwr01QxpZu6s3a6uQJ+DS1iffyBfTI86AFGQqzvqxnqWOxOVWc5TLF9NtXV78kOacRbe9ODUoEldZ26qLnskX06P67f0bvc12/ZxF3yXev1T9EmnGIHNhH1cV3b/fdmUqzlj0LHUkrnDNvnbixfTI1KQjU4HoySJxC+fA80YcioxdHrNnKhA9VSQud0+5R7LFdM2DwLeZUzMVOaLrRY+LxNWcgObPj0WL6S+sYoenVruO6IkicTvJepY4FLmKHqOpmYopotdFjzzS+1q0iLmThiJX8fkH1a5PEF0VPTISN5atXM+kocgUwXVlC8SBuUD0qrsJi8Tp4gq6K3sh7ON0KZsn73+gkqnIEb0iemwkbiHcs5JLFtNNzwH/WGM1U4HoVdG3UWZNN8PXX9mhdHNLIf122KlkKhC9InrsKXE78e60lWgIaxA9YCF8cvAHEb0i+rpyqb0Towv5lsSZcGd6kWqX40GmIicdqRF9EvYOw2wuV+hauDM9VaUfLhFT6RrRQ0+Jm3lsPs6FT2qd6GHHRL09sm6pdFX07YFZuwr/NQLRs/DHQGiM9fVGdEul6yo9Cz0lbux1zMBc1MdpRA+PLo+pdFOlj4Kv7MZH9EL2oJ6lPElih+g20dehF1V8tsSN7IShWcpNaIium5T8FD1wU+dQq7r+Z3PJELYuetR2U0S3VHrwLgDdG61LYdu3ltw87qL+ocWb6GNE11R6+NYP3Rmghh+dS54Cw3nKwwSo9CYqXau6rAF4FrR7sTtSqPRGKl03ljP84I3ghKFp2l1IiN5MpWtUNzj+C3cft0h8KBSiN1Tp9aPbtqJZjuanlql3FiN6Y6IP/jYXHQ3nuh+Mk7+XAdFNoufxG7eVWjfMU1b2IWz1lyQ5N6J4e4ogegOVXqv1rXvu8t3RGmwHAyq905Wuztv08/IL2xBWsX5pDo2g0hsVXWnCtKrnlkpWR3tfEf0ERFdV/2j72NpSXG2I/yeiNyb67ZvoT4NWVF8Z+7hd+sOhtaJvET1ppasLZBrVZ6Zn9qZsSXQqPbDSp1tRM6cx2jeGPm7icQz84plKb7/SM+NXJHPlGXP9CUNTnxd3rXyEo9ITVfq18QVLQ9cbFTJtH7fweVvbyOvOT6UnEn1uvDFkzvdozDV93NLrFX0/ZHy8QvSWRc/N0cfM+faUXb2PG3u9lzHze5PbDNGTiF6YM426HPylvpN7v0WP516iX/tN6/aVniF6lOhDS05Cu/mhovoHdfaSzb3e3LWf232k0lsV/cLyrkz9nfrSIrr5LdtPNlP4mUpvVfSVpRANj+dPGtG/HRauXPTCtjfGXOmIHiX62GZ4TducPtVHcl+rfZ1Q9Mz3pbyzt3sKt/co0We2iZnx/Wt3te799QM3pafo176nh+5Fp9Jroo/lov9KpevMsvmle3eqT38JS1lfsf1kGBH47T5F9ASVPrKGWS1vWrxX2/ut422cT96fjugNVXph9VS212s+aFRbeYq+8z5lDNHjRR/at6JZ36m6HVRW2b7aTLpe1cz/EBpEjxd9ZF/8tIr+sry+U24UY7Pqj5YmUn5/r4l+i+jv8yqh6IU9uG4V/aXI5urep6X5xy1NpHwUS6VbKl027VB2lP5uvRFoBnNZ/ekwlYs+CjhkjEqPrvSR47FrE/15oCRr9pd/IhZ9JTnSgEqXi/4ovVla9yNYRH/dl/ZBk3sfFkLRx9JoDZVuIEj04dyRYxtZuzilJfj5UB7uZKLPZCfbIHraSs9dJwqZRV/Xb9DvH2lYabtyfONE+iF6bKXXT3j7LBT9oe7yDzoxvV1XGrWFPDpZ/St/Q/SYSp+7Jigj++Q9N1XqWHB+uOaFD1dUeuOVnjvPYR+V1hTFhfEYuaVTdN2H31LpjYt+40yyjezBp5n5z05dos+Eb4BB9LSiu8/zHxnNmu4OXfnMif03D+ficI36Rf1WG0Yhulh07fs4qq3cqLSd4Dy09ed1u14R/UPgyf9UepzoI/e6iOZHDvapj60NQS0ut7a3cbKhHJVuEj0TiW440P/WLvrB6TMXds1U47Z2tHGihzqVHlfpK3c+fWQOx+m+Nf9n71yem1aWOCxZkr11TEBbpyBHW5Fy4a2BA9o6ORBvfS5Q2sbGtv79i996TD9mRpP41u3ZEktC3/x6unt6WjVmtcBtSk+4pSjdrdKhrziUF9YQKX5WOIJ1R+wDBD1g3Fug86E/cZUOFrT9hqGv1fcEs+fXAPQ76N5DgW4K3YfbuZIWtjJfQuzwog9l5IHAbUquLIxMrEC3gg4XNk0A6LX2IyFHqDMV9K5OTRUBfSjQ+dAjvDxCwbXeVGzM8b5L+6xT1UzgfSdAlN4OdKxGfapMoczphJ6izu28zzolXUiGcEXpNtARtZ0F28M+vZLwvvtxCtympBvHWNQFug30BCtuTpvQb1ghnyrk6tYsRYAdiVgKdHfQfbS4edKAfguypDdHR9V/66K37gt0Z9DxN7+q+2qKxbpHxPiNwG3CWFhIx0ygW0Afo2/+uP7GSHv+mN9jZH+EecKxMcC0KT/3QqAbQs/xV7+ogFW25890luT8DP0Ov/NGlM4eiSb0BH/1B1cuhoPnQGtJ3jpvE9adC1G6K+iEjT2+y7i+m0omd+bQDZMD9JC681SgO4LeoV795gz9o84VnsAMYDLnrCsUxZ5AV0A/lhik6J/HBUtwcQF+Py/WTa5EPBNDFFIclO4JdH2l57x3H8OOVa7TOOw87sgbr0TpbpQekK9+78qN4e/nQf5YauVAklfoidJNoXfpV78ri+2B31KLsKYk8BgxbjwX6E6gdxjvvvjnz4XApGho5Ie9Zwgdv0ID+pNAP6cuUjs/bjve3ff1M3qwHxa8/sm67UKgO1F6XjDHu18A95lmRo1LnPLkBLqx0rOCP979eqXlkKkyM68/adxQoL+keT9jaHD3+Rk1//snvbuJeXcDPXiTFVbcu0w/zH/UJF58vfcEuhPoRjjK3DucvdH3urdYfr2nHlugq1ZpLvTdUvvTlPuM3Bt9/5hpE2f8PwW6jdK1neojmy9XwOny0pa6PvHtVT2B7l7pJ+6JLiE05PuoS3zFJS7Q24K+HVffNLm3N1bKiFCgu4duYpHbGO/0iO89yEVlORPoFtBNvG1L4t/7+s/YOWzZC/SWoGvnzizG3/d9owcUpaugL6ygGwVy2oMOx/lK/y3Qz0rvW1zMf3CJfGPzaKJ0J0rfhXG5O+ZLqycTpWPQ+1aXi9xBn3gC/TKhe86kvvQE+qVCH7mC/lagXyz0wFWKri/Q3UD37F+ubp0Fd6w9gX6h0IN/Xblyc4F+qdDzjSNXbuUJ9PZG3ib0wRbOyI0b9zAV6Jeo9NFOkbQr9+V7bTySP0m9bGllg0KB7kTp2x5gWzM81l+eqTOpi+3sXKUtKD0T6G0qfdemfUUTVJ5qmJHzJLPz4EXpTpSenxyuXP/IWUi6cdvZeWMPXZTeJvSHs5cd6mdZAnKeZGBDE4H+UtBH5dAq0Q++curk+Y7WknDhBxOB3ir0CJNZt4L0Tv/wUYf6yZ4W7sKP4KNNAt0IeowY19O3dlakMw6k1iLqJxmdpYkQXy88eJAZr0WNQD/+JWhcz7UTK8pYg6UQCbEgHGndojNvJUpvFXqm7vp5duJK0Lv6Gycx4e6faH3EZt5SlK4DfX2ADrpKcOeAUcNNg7t0DxEqqG3IqAXiATrlLtBxpSeI0kHj2lX45nfa2+IB4fmdoatXmRHeYkqgg0pPYKUHkHGtfDDxCN3X3y3L8WYFJduhysdGxKQS6CZK9wHjWi2AXRF5VcR96uBZ2wzN5J5mnkBvU+lH6PVIeaBWcle7FiLCi2ArXsKNwstUNzER6DbQI7VxHUHmO9MuaU3QEK96vc/QzJsLdBfQK1FX7Vu4Jeh32pVuMboeZEhbohFdHS/QTaB3Vca1EZqdoStrKYbYo4Sot1+7U3mVKc+8Ifz4Ar3hcFHQQ9XKPEO881i3jjlAN9/r0+v8/dbKzHsilJ4LdA2lhwp4Aywki5j1E4oJqLLWDR/hVhnrPYnSW1R6r8I2BTz0FRp4E/nuDna5pmP4UTXzROnOoO/+2k9w6CMoz+IRUaFylmRA/PeBN6+6At0aenGTvs+IjFvDlSPPIGaID6C42zYfW595At0hdE6adcyrn4B/sPZQ6MWq72eFQHcHfawP3dc9Yd5F8nfMHlYI9JVAV0LPWoVed+VS6mFqC8LKaxW6KP05lF5Lt2w0nqaZaBGl/48ovZqwG9JPE8KVVUzoC1H6C0OvJuCn9NP4ML+2lb4W6I6g+7qnjXNwktgrXcx7A/oxSTlvE3p5kWa95TvQBRClv4DSeW1FNvAiPeE8TgS6AKL0i1X6Gl6k+5zHCcC/F6W/APTYCPq5v3rBe54E+vukZaUL9OeAnrKeB5wkhSj9/8+8F3ZKjwS6QsBulK7ryHXBv29J6TOB7ty855oh2xgMBETpL6B0I/OunZzJwII6S6VHovTnWtPH7aVhW1K6QLdR+l8ZDb26VTqkn6YDb7iI0l8e+q3nZyT0kd3W6oSE/tc3Ubo19JwLfVsOGyUUdO0iCiSRDyR9B6L051L6/nxJl4AetVkupSyRa04sBPpSoOsqvaegcY1Dj3ULI7EfqIthGyerROmuoJ86Ezxg0PVLoBOkBLoJ/XBytbrKiNJ1oK/40G/VcXX9VfZ0Dzs0D0K9RaDfKBcFgW6i9AkJvXxAvX7WAK9U1z7WtIShl2KBa8axJoFuovSwULaiqLnwa9gro5NyOXaAsYCPKpdXGTb0jUCnlR4CvR4+QNBn7R5VRleKXJTuVOmN9lIDNXRfq4tcZVopp0mBtR85rzJDUboB9AnuZd3iabQz9JbajyyU0BuNhk6rzESgtw5d1cKtHCmv4fCLCtoCvNEQkdD9INAdQPdV/cQaLvwatdUmLcWGTejKpxjgUaEv0E2hzylea8QTJ4K2MV5JT4b7Dyj0o9Jjga4BPSjgBszn7bQ15sYVRm1C53Xon4EHzLH4QJRuAt3DWq2fXPg1LlskaPOJsghVPlCxyvRF6fQYs6En6HfRZhXo8Af5hloBW2lHlgFr68KnovQ2lX6NZ1ayMvSQXxiPBmyleYI5cWcXfokZElG6ttKJsXfh1/j6DH/OA/lY56oMfYo+xGAj0LWVPjOHvnfh11j0hQVtXeonqBN3Gn2B/pxK37vwa8JUg5UUY+on6kwc3xAJdAi6jdJ3LvyaMNVg0IYeSk097BMyAv0lof8xFJtK1M4P2vCP8j7todt8TFugu4IeZBvcjQODtg7Z34J3WkKga0FftgDdiz4TPhn0tvF5snXlaCdOoBsrfdheQACMqa5137lyWD7QBPpKoLekdNKN293p1/faeCTbTKTem9QTpbuCbq30TuFgWD+VKN0p9MwF9JVAv2To3cLJmLcNXcx7i9BjN9AXovTLhR4UjkYq0C8W+p0r6G/toacC3Q30zBX0VSpKv1DoYeFs3Fg9WHBQ+ligtw09yNxBt3PgxbyXRq9N6MF/HDIvlj9E6S6UHttAv6KzqZbj6ytR+iUp/fVP18T3T/n1vi9Kbxe6mdKD1z+LZxzvfr0S6O1ALwyV7j8v8QMxbe4CHYT+R+lPWsQfPxUvNDS5C/R2oL9/zHQX5G8oxr8dchfoLUA3IH5PFFj0DZwDNvcG9KVA14N+9c2E+HbkVO2cK+6idCvor79pBmfLL1fNtABydN2E+5Uo3R107XC8TNxDc/MTqyBw+eUfge4G+kBTgV9eKRJjvEMQgfb8eivQnUBPbNdapMbCeiXZCHQn0DNr7yrXRHbFjxIEuhvoM+s8aUz6ccbR4YKC3hfo+9HRgj7mvPwfvPvpVLa/sa6NF6UbQ+cUxuwqXP6FrtDVOOyk6UHORelOoPuMd9/fof2MvHyDateA4dHhVxDoKugpJ06n3/2uLUEE6y4z8MI8Tjn9yuMovSfQFUrHG/HnPCMbHb+wwqYHe2EPQ3RZ4B6HEKUbK33M01sE940Ya3phg8M0JD34JxZ0UboKOq70kOdC79pLbVINTw5aDa6PEu5Y+XEC3QK6z/OmovPyzrwC4IV9ONlt0pVLBboZ9DEFnXr1h4U1Qs4nKK8AIIhK14ztDjPXoRcCnat0Kic3r0BXto3OQZ+/aRWS5kQyPdYq0I2VTnhyq7oN/8G8gvKuh0/4LvBgj9mrQqCbQ++y3vwJuiJwC7leWJBXNRySOSGB7gY6ev781O337K01Azefi+yhZrhRf4L0ywS6OXQ0PbNQgG0cMQ6YyAaNq8ZUIlCg80aoCx1781OVmjeMabNRBuh16JHFki7QbZQecqoYKib8lp42v5UBesMvzy3OMQt0C6X7nNJGH2sn0MGLIveiTlT51ZFFSxqBbgEdjpxKH22ozYzPVAAwVQboDeiwK0d/OVWg20CPGekRHzO+AVkU6WfATkpsvKRvE4EC3Rh6yKh9CdCQLKP8uBzaPovM6m5K0DsC3QS6zylGbaTq+pitWKgDdIWKc8MofQd9KtBNoUMvfoJBr+yzjnHjPEAuPDJd0kXpSuh9LvQxQ2zNf79FPLmKcR7pzSbmki5Kx5RON2HtMurWoSpZ9QKRolef0DOuL0p3rHT1jnifgl4K3BJ4KzxKcOi+yV66KJ2Azmi3PKOrWfGs2QyO9RIqc5Mb7KULdHvonYLMqamX/anaRp9XZGXHyQkZMc4FugX0Hgu6TxtYdersuM8aQsxyMixQzQtWuVsDeirQdZSuYPOWl6s97LP6gB/3QMeCqubia0+U7lzpivfe50E/NpZJlFZiUHCg+/R2jSjdAfSI1Bq4K3PbNBVrPPHSYDozCNhE6eqgWwN6g+mcDX1fIBsrcuvdggm9q3kMTpTeitLr7vfK40PfFch2mjMmSrjQ6xcfesx5KtCtlB5RLX4yvKgqalhnPyvY0O8MrPtR6aFAN1V6DWqqBf1PuB7UA64gL/jQAwPrLkq3VnrVvi84QV01TZ/V/Djs4EzTOY/1rfsRuijdHHpEJMRmxNmnuLpTg3YXmSAPzbbuAt0eelmqqu0ODPrH6rI8oc7CTtC7cz+fKdDtoY9x+zojGhF1K0rVhn6nbd0FegvQI1URLAf6bc0X2/lx15rQSym9/n/bO5emNo4oCiNgxFaolPLWlIvSlqTGYmvKKWsrU+VoqxQLbW0C1t9PHIRQ9/S7e14937dMDJZ1pmfuuX36DqI3JvrbHVb5A2vbgYi5+B+mfqK/1QTPJ+6fd4PokaKfGoOouqzyISq3lq6Zez/Rx159d1a6TvS9i3UV/cxYSGlEfwvF3kqin917if7qCd2HiLDSdSvdQ/RXXd97iH50bvlCTrXr2zNK0UvDMANE913pz34/+XjjLvrxWfWLSqBSq/pGeaOZe5VxiJ5mpb9EWH6cOIsuTKW4rdaBuvb7Sv83/DxB9EZX+otZ1iy1C9uK3SrK79HcQ/TCq4xD9ESijwxL7cKUgBYs23E/T626WvRfl83jDaI3LPqvr/2Ts+h3lQtG8eUrN9U1op97PIoQPZnoY/0pg1P9+RbprxU1/Th3Pr7yXym3OvG6QhH9+NEYKPrZ8pOr6PIIEm3rfuF+ZumP5xP/lT5G9LiVfnJmM/HaZulauxu/CDmoxkpvbKWb15XmnLJUx1VrwZn/wAFWehdEL1VHHNR1XLWTOgs4tOS80hG9LtEX+ikUlTpOcfueBhxgQfSWRReNl+oNDxfm3vq0hqWO6DrRz1OILrZYlO9yeWeZAD3dWX8FondppUtttY21zlN09eSN1gmid3qlS9smytcxntlPGt/vbI8If9E/IXo9oksbpFeW5oB2HUu/J151Vnp9om9dRraeumyYb20WIHKlTxA9kej3TgdKpX7dd/U9Y2kx+9ze40XfJBB96jYjYuv0p8qdpa3HSu/CSp85jn1ymxkzCjqHzkoPWOkRX23pOA1m5DisfWfZqmOlt397X7jObD13HAm2S6h6uWOl17DSVakXtei3jqNdTaNGQ/6ZrPTUoivzbc8udZzro78auvL8cIheeb7uRQ9sdKszjWrR546zXc0DZn06RstDg6dAdMVKD2t+aU4qPDnVcbrnq/vRB6eO0f8dYVa6aqWHtUE079lQiu7w4p6XCyn0JQ7qjtGV9EFZ6bvjznRAG0TzHiWl6BeOQ/rVowoevT/c7LjyR/TKSt8vigDbVrqL/s5xdrda9A9hTvL1Qkb0quj7x5+/NVI/1JWiL63T4g2iez97CvHHSkSviqcB3Y4AAAicSURBVL7f5vC3Rsry/cn1Ue0s+iboYx2K0/EO0auiv4r3kOQG/+hWx6krudEuvjuzv4ZXigYSoh+tof0X423XlTd4xZ87dR08MHJ8XNjN2mfxEkD0aiOlCEwjqm7wbnWceqLEyPkso5apcHsQL0tEF26di8CsSukk+na3c6vkRtE391K8mtc7RK98s3eis/Vv0mxdRJ+7tlxGsTd30azJCQ9El6Kr07AmTfUG79y7m9j/pG9/+KU4UZg1RFcbonXY/nVhF/3ceZpQEfKqFrlJeChNih2iq0U/fEVngU2a0rqTcqsdB24R3fOz7P8FG+1NCNErt9C9u/HeybQeTdEMDnu2ie67z7/WmzVE17U5A5s00rc7cavjlJVcEZN7N5m1BDHLvER/q96KeZBdF1NTE5c2m+ZBUEQ4dMms3cf38LMW/a16W4QdKDKfPR/vnOdCFrYjcbbP8KQxa2kOx2Ul+lvFVIatiYVJ9Aud6O9Nonvu/0i7LIs0+ZuMuDfk0ALt+swgum4muGJLvQgu3JdmsxaYtMsI1T7Jg3hFeGcqpvpHsfbdXU960cPM2oPWrIUnqbNWPdauT3Win+ln+d/oRL8OuncZzNrzCSimL8fa9cMkiZVrHae4KRRh3moqXilb/dslhq36XP8KhtBMxb1ayVO96O/Vol97SrQQrxQKd623NrxsJTBTcTZV/tg7veg/lJ/qOuifot1lSTS1KAtMZw/HgetjphJ9qxf9p0q/q6CblsmsPaD2iXZFyE2apyDVV851XHVHrvDPZxoicZg1k8vSZSr8659FRfTCJPqk0jf62/dvxKwlb9J4/86Py4lzHafYL78Ju3LZZUnTpAnMVFS4NYn+T+xvL8VPuWaXxfV5aMpU3MX+HVuT6LHL0ByJw6y52vXoTIXE3CT6Y9zvtkTikg2Oz82uz/U3xOCDL2JptvOp5GLM2hizFm7XYzMVAudm0TfxJclGf/1SuAfb9ajn4q1Z9O8Rv9oaibtGXWMbLW2m4oh3ZtEjdr/sZo3CPcqu33RPdCJxcaytmYrwG2Vhrt6Dn+ljzFr6Js1K9NkRJdHlX7rozJevsWZtoi9MNuhq8T7Leu3679/+lBf805evEbdfInH1NGmiMxUVoS4vf/v2wuUkya2JXZbIJk36TEXtpSeRuDqaNOIV0Z3KSDRrROLqbNI8Tbp0fRrMGoW75/pRPxlnHVpAUiRuRiSu3iZNFx6VROJqt+vJMxXRH1KKxGHW0nyhtWYqYsGsNWDXU2cqkjyC7vRXKZE4/yLJnqnYtG8xiMSlZVxzpiKFWWOXpXm73t4XSySuDbtetnoLxaw1atfvxCuinSaN/fwShXs4dWYqoj/WYZdlTiSu7iaNZNdbWFNE4mp+eJqaNC3ZdeNIb8xaPU2a5JmKECuJWavVHBnemdRGpmLfIjCYtQ2iJWqDqJ+Z48aXlhSJG7PL0laTprmHqHWkN2atgSZNw5kKInFtNmnayVRg1tq161KmopG7akkkrknVO5GpKKwjvVdIVa9dlzMVD818BnZZmrbHbWYqOL/ULbveRKaC80sdsevPkl2vs4yymjUicU3b9dozFTPbSG92WRqz601lKqSR3pi15ti2lamwjvQmEtdok2YjXhG1VFOYtVbteiuZCiJxnWvS1J+pWNvMGpG4mps01kxFcrsu7bIs2WXpVpOmjkKa80vdbNLUmang/FLnmzTJMxX280sbFGmpSVNXpsI+0ptdlvbsej2ZCkZ6d0j1pjIVayJxnbbrdWQqiMR1y67bMxXxdt16fonCvUN2PU2TprCatRU6tG7X02YqpMK9ZJel43Y9QaaCSFxf7PqVeEVEJJiIxHWUrWH1xWYqiMT1qEmzEf9f6HK0mjV2WVqz63VlKojE9cuuH+SIyFRYzy8RiWtV9ToyFUTietykCZxTYR/pTeHeMrPkmYotkbheN2lCMhVT60hvCvf2WVszFT5Ls+T8Ul/tenCmgkhcX1RfWoeJutp1InH9adKkylTYzRq7LF1u0sgHX1zs+v62sNL/VsxaT+x6MXd9FouROMX9g0hcp0iRqSASl4FdvxavCJtk1vNLFO6dw2FOhfHnx0TiekhcpmJkNWvssvTErj+ID+g7yw8z0rt/dj08U8H5pSybNOZMhRiJGxGJ61OTJjBTQSQu2yaN1nctGOnda0IyFUTiMmzSWDIVnF/qP76ZCvv5JQr37tt1z0wFkbhcmzQr8Yr4rDNrROJytOtypoJIXDZ23TlTwfmlgdj1o2JdMmszInF9xiFTcUMkbgB2vZKp4PxSbtgzFc/Wkd5E4vqGPVPBSO9B2PWHSgOHSFxmdt2eqSASNwS7LmUq2GXJUHVLpuKwmDFrA2nSjN8WM5G4rJiZmjSHXZY5kbjcmzTyIiYSlx1r6+Mas5afXd9aCnMicQNp0hypilnLs0kzNzRexoYWPeTVpHnNVBCJG5Jdf6nPGTyQMaWmScOLUwdm16+ZEpc7qnd/MCVugHadXZYh2nV2WbK361bVicQNwq5j1vJX3ag5hXueLEyar/h+8mSmF51dlmyZ6jT/wHeTL2u15uyyZG3XtxTuA1R9uWOXZXBUt9AxawOw63MicYO36+yyDIKSXZZh23V2WQbDPWZtgGwp3Idq19F8YHZ9SSRukHYdszY81TFrAAAAAAAAAAAAAAAAAAAAAAAAAAAAAAAAAAAAAAAAAAAAAAAAAAAAAAAAAAAAAAAAAAAAAAAAAAAAAAAAAAAAAAAAAAAAAAAAAAAAAAAAAAAAAAAAAAAAAAAAAAAAAAAAAAAAAAAAAAAAAAAAAAAAAAAAAAAAAAAAAAAAAAAAAAAAAAAAAAAAAAAAAAAAAAAAAAAAAAAAAAAAAAAAAAAAAAAAAAAAAAAAAAAAAAAAAAAAAAAAAAAAAAAAAAAAAAAAAAAAAAAAAAAAAAAAANAL/gUo1DRmDYwVhAAAAABJRU5ErkJggg==;" parent="1" vertex="1">
                    <mxGeometry x="76" y="385" width="50" height="50" as="geometry"/>
                </mxCell>
                <mxCell id="42" value="&lt;font color=&quot;#5e5e5e&quot;&gt;NS：kubgems-installer&lt;/font&gt;" style="whiteSpace=wrap;html=1;fontSize=14;strokeColor=#5C5C5C;strokeWidth=0;fillColor=#FFFFFF;align=center;opacity=0;fontFamily=Lucida Console;fontColor=#AAAAAA;fontStyle=0" parent="1" vertex="1">
                    <mxGeometry x="344" y="503.5" width="180" height="35" as="geometry"/>
                </mxCell>
                <mxCell id="44" value="&lt;font color=&quot;#5e5e5e&quot;&gt;NS：nacos&lt;/font&gt;" style="whiteSpace=wrap;html=1;fontSize=14;strokeColor=#5C5C5C;strokeWidth=0;fillColor=#FFFFFF;align=center;opacity=0;fontFamily=Lucida Console;fontColor=#AAAAAA;fontStyle=0" parent="1" vertex="1">
                    <mxGeometry x="631.53" y="437.25" width="110" height="35" as="geometry"/>
                </mxCell>
                <mxCell id="48" style="edgeStyle=orthogonalEdgeStyle;html=1;strokeWidth=2;strokeColor=#4284F3;startArrow=none;exitX=0.5;exitY=1;exitDx=0;exitDy=0;" parent="1" source="46" target="10" edge="1">
                    <mxGeometry relative="1" as="geometry">
                        <mxPoint x="752.53" y="598.2499999999998" as="targetPoint"/>
                        <Array as="points">
                            <mxPoint x="938" y="608"/>
                            <mxPoint x="748" y="608"/>
                        </Array>
                    </mxGeometry>
                </mxCell>
                <mxCell id="46" value="" style="strokeColor=#dddddd;fillColor=#ffffff;shadow=0;strokeWidth=1;rounded=1;absoluteArcSize=1;arcSize=2;fontSize=11;fontColor=#9E9E9E;align=center;html=1;" parent="1" vertex="1">
                    <mxGeometry x="852.53" y="497.25" width="170" height="68.5" as="geometry"/>
                </mxCell>
                <mxCell id="47" value="&lt;font color=&quot;#000000&quot;&gt;Nacos Offical&lt;br&gt;&lt;/font&gt;Helm Charts&lt;hr&gt;&lt;span style=&quot;font-size: 11px&quot;&gt;KubeGems Engine&lt;br&gt;&lt;br&gt;&lt;/span&gt;" style="dashed=0;connectable=0;html=1;fillColor=#5184F3;strokeColor=none;shape=mxgraph.gcp2.hexIcon;prIcon=container_engine;part=1;labelPosition=right;verticalLabelPosition=middle;align=left;verticalAlign=top;spacingLeft=5;fontColor=#999999;fontSize=12;spacingTop=-8;" parent="46" vertex="1">
                    <mxGeometry width="44" height="39" relative="1" as="geometry">
                        <mxPoint x="5" y="7" as="offset"/>
                    </mxGeometry>
                </mxCell>
                <mxCell id="45" value="" style="dashed=0;outlineConnect=0;html=1;align=center;labelPosition=center;verticalLabelPosition=bottom;verticalAlign=top;shape=mxgraph.weblogos.github" parent="46" vertex="1">
                    <mxGeometry x="11.5" y="11" width="34" height="35" as="geometry"/>
                </mxCell>
                <mxCell id="54" value="" style="shape=image;verticalLabelPosition=bottom;labelBackgroundColor=#ffffff;verticalAlign=top;aspect=fixed;imageAspect=0;image=https://img2018.cnblogs.com/i-beta/1216484/202002/1216484-20200215203202878-2105320123.png;" parent="1" vertex="1">
                    <mxGeometry x="120" y="950" width="340" height="288" as="geometry"/>
                </mxCell>
                <mxCell id="59" value="" style="shape=image;verticalLabelPosition=bottom;labelBackgroundColor=#ffffff;verticalAlign=top;aspect=fixed;imageAspect=0;image=data:image/png,iVBORw0KGgoAAAANSUhEUgAAAVQAAAEgCAYAAADrIYtiAAAEDmlDQ1BrQ0dDb2xvclNwYWNlR2VuZXJpY1JHQgAAOI2NVV1oHFUUPpu5syskzoPUpqaSDv41lLRsUtGE2uj+ZbNt3CyTbLRBkMns3Z1pJjPj/KRpKT4UQRDBqOCT4P9bwSchaqvtiy2itFCiBIMo+ND6R6HSFwnruTOzu5O4a73L3PnmnO9+595z7t4LkLgsW5beJQIsGq4t5dPis8fmxMQ6dMF90A190C0rjpUqlSYBG+PCv9rt7yDG3tf2t/f/Z+uuUEcBiN2F2Kw4yiLiZQD+FcWyXYAEQfvICddi+AnEO2ycIOISw7UAVxieD/Cyz5mRMohfRSwoqoz+xNuIB+cj9loEB3Pw2448NaitKSLLRck2q5pOI9O9g/t/tkXda8Tbg0+PszB9FN8DuPaXKnKW4YcQn1Xk3HSIry5ps8UQ/2W5aQnxIwBdu7yFcgrxPsRjVXu8HOh0qao30cArp9SZZxDfg3h1wTzKxu5E/LUxX5wKdX5SnAzmDx4A4OIqLbB69yMesE1pKojLjVdoNsfyiPi45hZmAn3uLWdpOtfQOaVmikEs7ovj8hFWpz7EV6mel0L9Xy23FMYlPYZenAx0yDB1/PX6dledmQjikjkXCxqMJS9WtfFCyH9XtSekEF+2dH+P4tzITduTygGfv58a5VCTH5PtXD7EFZiNyUDBhHnsFTBgE0SQIA9pfFtgo6cKGuhooeilaKH41eDs38Ip+f4At1Rq/sjr6NEwQqb/I/DQqsLvaFUjvAx+eWirddAJZnAj1DFJL0mSg/gcIpPkMBkhoyCSJ8lTZIxk0TpKDjXHliJzZPO50dR5ASNSnzeLvIvod0HG/mdkmOC0z8VKnzcQ2M/Yz2vKldduXjp9bleLu0ZWn7vWc+l0JGcaai10yNrUnXLP/8Jf59ewX+c3Wgz+B34Df+vbVrc16zTMVgp9um9bxEfzPU5kPqUtVWxhs6OiWTVW+gIfywB9uXi7CGcGW/zk98k/kmvJ95IfJn/j3uQ+4c5zn3Kfcd+AyF3gLnJfcl9xH3OfR2rUee80a+6vo7EK5mmXUdyfQlrYLTwoZIU9wsPCZEtP6BWGhAlhL3p2N6sTjRdduwbHsG9kq32sgBepc+xurLPW4T9URpYGJ3ym4+8zA05u44QjST8ZIoVtu3qE7fWmdn5LPdqvgcZz8Ww8BWJ8X3w0PhQ/wnCDGd+LvlHs8dRy6bLLDuKMaZ20tZrqisPJ5ONiCq8yKhYM5cCgKOu66Lsc0aYOtZdo5QCwezI4wm9J/v0X23mlZXOfBjj8Jzv3WrY5D+CsA9D7aMs2gGfjve8ArD6mePZSeCfEYt8CONWDw8FXTxrPqx/r9Vt4biXeANh8vV7/+/16ffMD1N8AuKD/A/8leAvFY9bLAAAAOGVYSWZNTQAqAAAACAABh2kABAAAAAEAAAAaAAAAAAACoAIABAAAAAEAAAFUoAMABAAAAAEAAAEgAAAAALz8zDEAAEAASURBVHgB7Z0FnCzFtcYr75HgwQkEAvfi7hpsIUhwCRZcgxM8+MXd3cLFJbi7uzuBIJfgECxIQvJkXv0P75tb2zu7O7vbPdMzc+r366nunu7qqq9OfXWq6lTVjyrRBXeOgCPgCDgCQ0bgP4YcggfgCDgCjoAjYAg4obogOAKOgCOQEwJOqDkB6cE4Ao6AI+CE6jLgCDgCjkBOCDih5gSkB+MIOAKOgBOqy4Aj4Ag4Ajkh4ISaE5AejCPgCDgCTqguA46AI+AI5ISAE2pOQHowjoAj4Ag4oboMOAKOgCOQEwJOqDkB6cE4Ao6AI+CE6jLgCDgCjkBOCDih5gSkB+MIOAKOgBOqy4Aj4Ag4Ajkh4ISaE5AejCPgCDgCTqguA46AI+AI5ISAE2pOQHowjoAj4Ag4oboMOAKOgCOQEwJOqDkB6cE4Ao6AI+CE6jLgCDgCjkBOCDih5gSkB+MIOAKOgBOqy4Aj4Ag4Ajkh4ISaE5AejCPgCDgCTqguA46AI+AI5ISAE2pOQHowjoAj4Ag4oboMOAKOgCOQEwJOqDkB6cE4Ao6AI+CE6jLgCDgCjkBOCDih5gSkB+MIOAKOgBOqy4Aj4Ag4Ajkh4ISaE5AejCPgCDgCTqguA46AI+AI5ISAE2pOQHowjoAj4Ag4oboMOAKOgCOQEwJOqDkB6cE4Ao6AI+CE6jLgCDgCjkBOCDih5gSkB+MIOAKOgBOqy4Aj4Ag4Ajkh4ISaE5AejCPgCDgCTqguA46AI+AI5ISAE2pOQHowjoAj4Ag4oboMOAKOgCOQEwJOqDkB6cE4Ao6AI+CE6jLgCDgCjkBOCDih5gSkB+MIOAKOgBOqy4Aj4Ag4Ajkh4ISaE5AejCPgCDgCTqguA46AI+AI5ISAE2pOQHowjoAj4Ag4oboMOAKOgCOQEwJOqDkB6cE4Ao6AI+CE6jLgCDgCjkBOCDih5gSkB+MIOAKOgBOqy4Aj4Ag4Ajkh4ISaE5AejCPgCDgCTqguA46AI+AI5ISAE2pOQHowjoAj4Ag4oboMOAKOgCOQEwJOqDkB6cE4Ao6AI+CE6jLgCDgCjkBOCDih5gSkB+MIOAKOgBOqy4Aj4Ag4Ajkh4ISaE5AejCPgCDgCTqguA46AI+AI5ITAGDmF48E4AjURqFQqdv9HP/pRqHWul9L/ucd1fy4NT8/qnq7x6wkrfd7PHYHBIvCjKIA/SPxgQ/D3HIE+EKglXv/7v/8b/uM/imkc1RO2E2wfGeZ/DQmBYqR6SFHyl9sJgVrklSVTSDAvlw07r3A9HEegHgS8yV8PSv7MoBGQhvqPf/wjfP755+Grr74KX3/9tR3ffvtt4OC/v//973b+/fffh3//+992/Nd//Vf47//+7wDhKhwiAmn++Mc/rh5jjjlmGGusscJ4440XfvrTn5o/zjjjhPHHH9+OCSaYIEw00URhwgkntP8GnRh/0RHoBwFv8vcDULv9DTGpWSy/vzTWeo57cp9++mn44IMPwscffxw++uij8M4779j5J598Ev72t7+FL774wkjzJz/5SRh77LEDPgQoIuSaAxLkf+5zQJpjjDFG+M///E8jUeLO8T//8z9GtBAvpPuvf/3LwoeYOdc9yJlr+ZyPO+64RqyTTTZZmGKKKeyYdtppzf/5z38epppqqjD55JPb95RutGy+Ke03TbvuCQu9o2v8Wlp6+r+ftw8CTqjtk5d1pUSaXq2CTwC17nPvyy+/DG+99VYYNWpUePPNN8Prr78e3n33XSNStEhph2iFk0wyiRHT1FNPHaaccko75x4kCnFCkvgQJmTJNaSTJae6EpR5COIjvpBqekC+ECtaMsT//vvvh/feey98+OGHRvip1kx8INZf/OIXYZZZZgnTTz99mG666cLw4cPDxBNPbHHWZ4UX38UpHbqve/an/7Q9Ak6obZ/F3ROY1VD5NyUySAfihDBfeOGF8Oqrr4Y33njDmuo0pyEUtLsZZ5wxzDTTTGHmmWcOP/vZz0y7RMOUZpkNt3ssGn+VEhxfT68h3n/+859VLRfNmvSTbg5p2XRL0H0wwwwzhLnmmivMMccchgHXaNZpmHwDcgVv11BBozOcE2pn5HM1lamGCgFAni+//HJ4+umnw7PPPmsEAilOOumkAQ0T0ph33nlNS4NQIRQ0zZSECVxkIl8fzF6nz2bP9U5vvggq+3/2fq1vZt9Jr2s9r3v4dCV899134Ztvvgl/+ctfwvPPP2+YoeF+9tln1t+LFjvffPOFBRdc0DDjGk0X54Saot3e506oLZ6/IsjekgEh4CBAiAHyfPLJJ8Ojjz4aXnzxRSMDNEyas5DBoosuav2JeQ7gZAlPcRXRKA261v+1/FTjy76XvU7f13/c03d6Cyt9VmEoDfJFtHQV0H3wxBNPhKeeesq6RNBw6dKYc845w2KLLRbmn39+O6dbJHUibe6l53pG9xRf3Xe/vAg4oZY3b+qKWVr4KYA4yJNzBmEg0Mceeyzcf//94aWXXrKmKf2DFPLFF188zDrrrNaMZ7BG73oBNijq+gF/ER8vQLD0N9Nl8OCDD5rmD+GSFxDskksuaSTLOaSb1fT10TQvPT+ESvl9J9Ty51GfMUwLNAMjFF60z9tuu82a8LzM4Aqa0tJLL22DK/SDMiCUurRgewFOken7XBWaCJCnhSX36J/FyoEBvLvvvjs88sgjds5zdBGsuOKK4Ze//KXlkSpCwmSwTs7zQ0iU33dCLX8e9RlDCix9enfccUe49957rbBi/rPAAguE5Zdf3rQiRtjpF001KRGACn/6ES/AKRp9n2cJVXgKa+GsUMgvLA0Y7KPSo5sAUzNaDeTXcsstZwNeVHgKy/ND6JXfd0ItWR5J4yRaKlAqlFxzjgkQg0g33XRTuOeee2zAhNF2CuSvfvUrK5zZ/rp6k+mFt16kej4ncuUf4Zje6/lGsIEubHipDO+8804b9MJiYNlllw2rrrqqVYwMAqYykA1H38re9+vGI+CE2njM+/xiSqg8KBJFs4FEb7jhhnDXXXeZofncc89thY4mI6ZM0mq8gPUJcan+TPObLhsGtBjguv76681sjfynolxttdVs0JCWRtZ5fmcRad61E2rzsK/5ZRmIU5Ag0ddeey1ce+214ZZbbrFRekyY1lprrbDIIosYifKcHOdeuIRGa/jSYNFA07xksgT2r48//ni47rrrwnPPPWe2viuttFJYc801w2yzzeZmWSXMYifUkmUKBYw+NfrXLrvsMhtkovCsvfbaoaury4zoGbCgAPKsBi/SJqGTaskytY/oiFCzj4hglc9orlhqXHPNNeGVV16xbp0NN9wwQLDMRnNXDgScUAvOh1oFRoVFn+YabZQBiksvvdT607ANpQ8NbYS55tlReUgzG7YTqRBtXT+bp6QkzWs0V6b/3njjjXZAtFS0kOtCCy3UY/AxiwSypko4+59fDx0BJ9ShY9hnCNkCkpIp55jUUDguuuiiwCIj2IZusskmNtLLzCScE2WfEHfUn5InZIeVurAtvvDCC80ci9ltyM4qq6xiLRmewakrQbLn8lScyDihFoethUyfaFagEWymMI4cOdJG6jFrWnfddcPqq68eMHnieQ4vAAVnTgsGL0JV1JER7mEpwIDlVVddZdNhad1svvnmtriL5EjvOKEKifx9J9T8Me0WogoAQg25Mu3znHPOseY9faNbbrmlGXazShNORKpzfC8AoOAOBFJ5UkXNfeQLxwIuzIyjsmaW3MILLxy22mor89Vt5PJkUBXy44Q6RFgl4Aomqw1wnxWcsDM8/fTTw9tvv20zliDS2Wef3RYa0bv4qbATdnqdPufnnYtAVuaySCCD9Mn/+c9/Dueee2647777wrBhw8IOO+xgdspMecWp8k6Jmfsuc6AwOOeEOjjcqm9JuEWk0hQQUpaEu/3228Npp51m/aM0w7bYYgtbiCQdGHABrsLpJ0NEAHlMZZBWEYNYF1xwgXUJsHg2xMqUV2xaRar6LNcuj0Jj4L4T6sAx6/aGBDgVTBbCgEhPPfVUG3Rab731wkYbbWSmLnpZz7sACxH380AgreAVnmSNftZLLrkkXHnllbYlzE477VQlVj2Ln1b26X0/7x8BJ9T+MerziVSAmRLKVNATTzzRBgZ++9vf2qgrJlBZJyF3Qs0i49dDQUDy2FcY2DlffPHFZufMgOguu+xiawho9SvXUPtCr+//nFD7xqfHv6nAqmmFz0DAsccea32k66yzjg02MWJPbZ++0yPAeMMFuBYqfm8wCEjWkCmdE056LblFY2XwCo2VLV722GMPM9tDZvUM71Lpp87lNUWj+7kTanc8+r1KhRShw/zpuOOOsyXz6JfafvvtbQBAQucaaL+Q+gMNRAD5RW5FkpwzUHrWWWfZ7DymNO+55562tQvPilz1PFGVbDcw2i3zKSfUAWaVCJUZKgw2XX311bZoxe67726j9gheKnwE7wI4QJD98cIQEKHqA5JVZmCxpCDdVSzOwnoRv//97229iKy26vIs9Hr6Tqg9MenzDtuIMLPphBNOsJ0+9913X2smpeuNSgOQ7wLYJ6T+ZwMRSAlVZMrnkVX9x04DRx55pO0+sOuuu4Y11ljDLAJ4jndcnkGitnNCzeAioZKwqXbmmoWcDzrooPDXv/41bLPNNoFBJzat68u58PWFjv/XaASQ7/4cMs+GhFdccYV1BUwzzTThwAMPtG1z9K6UBa5dxoVKxCIC3D/Co59v+7MUDgkNs09OPvlk67xfZpllbFQUQ2kEyWvstheJjkog8i8lgnO2bqE1xvYtKBCYWk000UTd+mGdUEeLiBPqaCzsLEuozDI57LDDbNootfRSSy3VzU7PCTUDoF+2NAJZ+ScxTA6gHBxxxBGWtgMOOCB0xRWuIFKe13bZLZ3wnCLvhJoBEgFBgL766qtw1FFH2cLOG2ywQdhuu+2sZlZXAK9Jg/UaOgOiX7YsAiJUaamSd64pE2eccUa4/PLLbUIA4wdsN+4TAUZnd8cTqgQISESQ1MYHH3ywNeePPvpo252yN6FxMh0tTH7W+gik5aFWalA2nn322bD33nvbegGMKaCt8l5qYiXtlTA6qYw4oUZBwCEorC/JdFFWyqe/aMcddzSttJMEwsDwH0egFwREuF9++aWZDVJWaMFhYjXuuONWxxXS1zup/Dih/j+hslAvTRgWfD788MPNFIrmjveRpkXDzzsdAREqrTmUEPa8QltloApTqznnnLPa0hNWnUSo3eeUCYEO8jFoZuodtSzmIZzThBGZdhAUnlRHoC4E1DXG+qqLLbaYLWrNNj2UIcoPRMsznejaXkNVjUrmKpPV0f7111+HQw45xPZD33nnncPGG29cNWCWMHRS7ao0u+8I9IVAWqZ4jnLFCmvsh3bKKaeEZZddNowYMcImvlB+KG8iYZ5v5zLVMYSaZijnb7zxhi0GgY0p0+3mmWeeav9PO2c4Au3OEcgLAZErZYrzF1980fpTxxtvPLNfnWmmmaqEyjfbvQut7Zv8ZLQyknOOO+64w3aJZPtdZoOw172TqMHkP47AoBAQUc4999zW7KcLgJ1YKWuUObUKVR4H9ZEWeKkjNFRlIttCsLvo8ccfbyvn08zXdhDUrjKNcnJtAcn1KJYCgVRDTUmTNS/OPPPMcN5554XddtstbLbZZtWt0FXOSpGAnCPRdoSqDE5xglC/++476y9lCh0zPVZbbTWrNVWz6j0n0xQ5P3cE+kcgLTs65y0GfG+66SYrd/SrUu60NbpCpWy2E8G2PaGSYczwwKaURU1Yco9miZwIVdfuOwKOwOARSAlVLUP6VdnHauqppzatldlVqTbrhDp4vAt/E5ONNLMgUciU5j5NkOmnn74aBzLcCbUKh584AkNGICXUNLC33nrLFl+nvDF9FRNFWoPtVv7aclAKouTAWJ++m0knndT20IFMVWvKTzPdzx0BR2BoCECSKDVZN3z48HDhhReGKaaYImy66aZWNnmm3cphyxMqNWJ6SDtlBsfWW28dFlpoIZtOOtlkk1ke6398nWcz368dAUdg8AjUWn2KsgaZMrWbbVYom48++qh9hPILCXP0puEOPjaNfbPlCRW4VCPiU+Pdf//91rxgjycM9+kIJ0NVG1KLpkdjIfevOQLtj0BavtJz7FMPPfTQsOqqq1q/KmU1dSqj6b1WOm8LQiXDyAh8RvExh1pvvfXCPvvsYzOf+K/VM6qVhMrj6gj0hQDbBe211142VZUFq2+//fbq463eamwLQlUz4a677grsgUMfDbZv2me81TOpKm1+4gi0AQK0JCmblNEtttjC/DvvvLMtuuDGaLX8EXmmGidmF/fcc49lzOabb27bNGjTPKVPpIoW684RcASah4DMpCiTLPuHY9dg+l6xV6WMq3zzTCuV2ZazQ6V2EzkCOuDTuY2dG6vdoKGyCo5cq2WI4u2+I9AJCFB+MWlkURWsABi0WmKJJapJb7Xy29KECupPP/102HbbbcPqq69u/TK1NNNWquGqkuQnjkAHICBtFFJlSvg111wTzj777LDAAgtY6lGapNG2AhwtR6hkgBwrRmFnysZ5bKCnefn6H7/Varg07n7uCLQ7AirPECekilUOI/8XXHCBTcJptfLbsoT62Wef2TYlrGpDc2GcccaxfhcyIOtcQ80i4teOQDkQEKEqNv/85z+tX3XUqFG2FZHsxyFcle0yl+eWJFQWht5yyy1tDyhWj5pkkkkMbIFeZsAlOO47Ao5ATwQgWJQlLHXGGmusMHLkyOpeVTxddo21pzrXM42luvP9999b8/6jjz6yOcGQqTtHwBFoHwQmnnhiK9t/+9vfbIUqugJw0lDLnNKWI9Tzzz8/PPDAAwY4zf1WALnMAuBxcwTKiABlm8WMHnroIVtTlTjSAi27Kz2h0gTAVIqDGRVsV3LwwQeHOeaYo0qmIlX5ZQfd4+cIOAL9IzDrrLOGgw46KJx88sm27xvlG1KFE9Kj/5Aa90TLGPYzor/ffvuF7bbbLjBHPyVP7zNtnMD4lxyBohEQcfKdlVZaKbz99tu2xTurxc0444xFf35I4Zd+UArN9NtvvzWj/Z/97Gfh9NNPr04p9UGoIeW9v+wIlA4BNE9c2rxn3IQ5/4ybsAdcuup/2ZSp0jf5AfeYY44JX375pa1Sw8gfLp0xZTf8xxFwBNoCAZVttUIp83TzsUPx0UcfXV1droyJLR2hqm+E/Wg4v+2228LVV19tW9KyniIOoDV7omw1VBkz2ePkCLQKApTndD1VyjrHz3/+cxs/YSbVLbfcYhosWizkWyZXOkIFHICCMN99913rlGZq6fzzz1/FDdB1VG/6iSPgCLQNArXKNxzAmh3Mpnr//fdLmdbS9aGilUKo2J6xqjdq/uWXX25GvmoCALY7R8ARaH8ExAeklPLPTCoWQRp33HHNnIqFkFKNttmIlE5DhUwB7tprrw3PPfec9Z8yrVRk2mzA/PuOgCPQHATghrHHHts4gZ1U6QpU119zYtTzq00nVPWZ0hfCOY6dSul8Zq3EsptJ9ITU7zgCjkBeCNAaRZnSQbjTTTdd2GWXXcKxxx5rXCEOkZ/XtwcTTtOb/IBAzSPHObamTDujqU+N5E18oeO+I9DZCMAXKF///ve/w4YbbhgmnHBCW+6Ppr94pJlaa9M1VEBIm/NshfDwww+HI444wvaD6mzx8dQ7Ao5AigDKFYSJogVHPPbYY4Gtj+ARyDblkvS9Rp03nVABQDXLN998Ew4//HBbaWbmmWduOjiNygT/jiPgCNSHgFq0cMYMM8wQ2PIIzoA7ytCSbTqhCkaAOvfcc62W+d3vfqfbpQCpGhk/cQQcgaYikPapMrq/zTbbWHxY5b8MrjSEykAUq3T/4Q9/CCzfBXBS48sAlMfBEXAEyoEA3KBjggkmCHvvvbdxxzvvvNP0CDadUCFNmv2sKIMKv/zyy1e7AJqOjkfAEXAESo/AcsstF2aaaaZw0kknNT2uTSdUyPSll16y6WSsJpXuC9XsDuam545HwBFwBPpFAM7Yf//9bZo69qnNdA03m6KvNHWYQGy11VampZ511llGqNlnUO/dOQKOgCOQRUBcwdofmFtiTsUi9KnpVCP5oykaqkb1AYca5ZFHHgm77757wJYMgNQ/Ij8Lol87Ao6AIyAE4BMGqOAQuOT555/XXw33m0KoSiVA0O/R1dVlfSC6774j4Ag4AgNBAC5hAepll13WOCVV2gYSzlCfbQqhqm/0z3/+s9UoTDHVvaEmyN93BByBzkSAZv7OO+8cHn300QC34BpNrE0hVCUS27EFF1wwyIjfm/itXxDUp4XfqAPU9C0hqGt8rROR3uNcrrdn+D99Ts+7Xy4EUMZ0MNq/6KKLBsZj4JlGK2pNIVQSyVqnbLrH+oZafksCX67s8tgMFIG8SEgVb3/fT7+XlSGFkfUJs7dn9T3+b+SAhr7rfv0ISAmTD5fAKXfccUd47733Gq6hNmWTPoSbhU+GDRsW5ptvvvrR8ydbCgGRWKolcO9f//qXrXPLWrdff/11+O677+z4/PPPbasb7vEf9//xj3/Y87zDu4zmpuFSgGjqYTrDVhnM8WatzPHHH98WzphoookCx3jjjWcH+xFxsKgGz6YOAiXsNL5OqilCrXE+zzzzhOHDhxvH7LXXXg2NdMPNpmh+UVCWWWaZsNtuu4X11luvmwCTetcKGioDuX4MAmJxcFYL+/TTT+1gFhw7V9Iq4YAkcZCX8hqfdW8hOsiQA2LkHkTJIfKE8HheBMv3MJchXBYgRr7Y2DElZuIlctQ3IVm21phmmmlsSTgq+EknnTSwGSQHVic4PW8X/lNqBMhj5OKqq64KRx11VHjooYdMlhoV6aZoqCQSjWOFFVboRqYuuI3K9tHfQQAH6qTF4UOaH3zwQWDaHyZwr776qq1RqT3BCJupxNNOO61ZcjAKO+WUUwamDIo80RghN9kOZuOEXGTvKc7pf+m5/scnnhAsh7Tir776ynbRhOAh/Kefftq0Y70HeUO0s802W5hzzjlN45lqqqmMaFMNVs9nfWHEfZfrLDrFXzPj8rDDDgv33XdfWHXVVbt9sMj8aLiGSsFYf/31wy9+8QurQShERSawG5J+0QMBWgw4kQREoGud2434AwlBPoygPvnkk2bvB0Hh0OaYOjz77LOHWWedNUA+k002WWBjRbRMnMLjW80inCwxEw/uIYNsV4xm/cknn4QPP/zQKodXXnklvPXWW6YAkAYqgrnmmissssgiVkHQtKRLQfgpnQqT+y7foNI4h0yTr/vuu69V9H/6058aJm8NJ1QK5NJLL21bnFDzu8A1TtBqfUkEI4ITwfAs5PLGG2+EJ554wkxR0EL5n6Y4pIKFBqOqaHI0ndHqUodgQyYiG96V071Gk43Sq3jU49Ol8PHHH1t3xeuvv27a7AsvvGBdC6QD5WDxxRcPCy20kFmsUJGgKAjTRqexnjS16zPKX2SPynCNNdYI999/f5h66qmrclhkfjScUM8555xw6aWXhptvvtk0FyfU5oo2AqiCT5MYwsCO795777Xanf8RxsUWWywsvPDCZjzNtQgjjb1IMr2nsLmXnuuZIoVb38j6KnTcrxWn/u7rf7TYN998Mzz11FO2KDqjyqSH7g3GCDDfmWWWWWwQjHfcFY+A8pZ8pcWx8sor2zgNS4JKPouUucIJVQkESmoNEvirX/3KpolxzwkVFPJzKd5pqClx6ByfPlA2Q8SEDU0UIWRgBkKARCEEBmjkEMbevqFn6vGLFOr+vq/4Ky3y0/cUPz2b/qfz7DOfffaZVUgPPvig9d2BLdYHVEQrrrhimHfeeatYqnArrNRXuOk9P68fAeUZ8s1MzNtuu83kG1yL5puGEiq1OZ3FbHPCRlsSKheg+oWlvyeptIQrApV1CBuaFX2g119/va30xTM0VxkkxOSEKXx6VwNF2XD8ujYCKszkA3vHU1lRoMGb/+aYY46w2mqrmfZKPzN5JayVb14eamNbz13hr2exLmEgVJzD/SJlunBCRbBwCMvIkSPDxRdfbEv1jTnmmNX7LkAGRS4/WYGisII92hNNebbepf8P/LviGgorrbRSmHvuuW1gRQU7jQjvev6kiPR9nsWfp8GVwTusIG699daABot5F2MIa621VlhiiSXMEsIJtW9s6/kX/CXz+FgT0SreaKONbGslZLnlCRVBIXFrrrmmaUAjRowwbLyw1iMiA3smrcCwy4Q8scmjEGPKRHcL+cCECmw7cSrInJNPuPSeE6pBUtdPWqD1ggq4rumrhlxpIbDBHAUcUl1nnXUsX7ITDvSe+/0joAotxRzzKfq5r7vuOgugLQgVDYlO+iuuuCLMP//83ZDxAtsNjj4vJDA8lAqNXuIeI9JoQgz+MfsIDRRTtV/+8pemCSkMcNe53q/le/7UQqX3e8K0HnzRXFly7sorrzQzNEywfvvb35pWheVEWrHpi9l89/wRMrXXXmA5v7XXXjs8/vjjJv9FEmp3O5fR8crtDOFCayJR2CPSd5oViNw+1gEBgV3qhCXaJzsf0KXCCD0zjdZdd10rmMPiDCA58iMtgOm5nnF/aAikmKbntULFrvXXv/61HZgUUhFedtll4cwzzwxLLbVU2GSTTazfVV1khEEeSg5qEW6t73TKvSzeYAXnoPXTWqOFVqRrWB/qAQccYGY4F154YQ97xSwIRSa41cNWBUU6wI0pl+xNjjnayy+/bIb1m266qRVGKjAKnkhUhc/xLo8UkDdyqhzpEqC/m7JC1wCWFttuu621MFJi9fwUcr374IuyQZnAXviII44otA+1cA2VpJLxCAjz9rPG371D4f/0hgCEyHz1u+++O7AE4kcffRTYqIyZIcxUAm/1pRKGCJR7RTZ3eouv368PAREk03AZmUabeu2118JFF11k615MPvnkRqzkNdN1paV6nvaOL7IPrksuuaQtliKMe39jaP8UrqFSQzDjBrMcmjNMS8w6Ffjs/U68lsYibSWLAdoLZjhnnHFG+OKLL6xZv8EGG9hc8+yzta4d61qoNP+e8r1WTJAFTLDoE6evlTUQ2D8JCw26drLO83g0IuAKfkwfxmSTflSmQxflGkKoDz/8cNhmm21s5RcWyvAM7z07swVLWgjTH9FITzzxRDPGh0RpxmB0n611Hd/e8W21f0QIijeTBS655BI7JplkkrDLLrtY6wSLDVXCnv9C6wcfDBn8Y1CWhafRVotyDVlgmn4gFpFgDri7gSFAIWEGEwS6zz77hK5oO4qmv+eeewaagHIiXl27314IUGlyoF2x7CUz22j6MzaBVQCWAnTpuBx0z3cpKHAPg1MMTBXpGkKo9J/SsZ52qBeZqHYIm8LBwiTst7X11luHYXGk/oYbbrD9xzGnod8MTUTaKT7vuHbSDrk/Og1pHusuJEFlyuLJyMSMM85oLcCddtrJmrZ6zv3RCDB2Q3cjTf4iXeGESo05atQoM1j22rNnVlI4IEIdPEHz5LTTTjNDb5p4jPYee+yx1X5SkWl2MMIH/Hri2453yHdprCzEwkLK9K+yvCL2lnQL0b+OTCFf2aMdMektTamCwWQWpqKmuPT23mDvF96HSiZjyH/jjTealoogpIkcbMTb5T2EHUdlw0ENSjMOcyg0EGwUtXI8zzl+oOAuRQCCQC6YZsleSkcffbQtysKMRBa4gYCRM1XAnVb+VMZYx5dpqKyvgP2vXJ54FK6hMjpJhqf9fUqI+6OnejKjCSJl8I5CQAW0+uqr9yBTx8wRSBEQWVAZ06XGwis33XSTDbzsuOOOZkqHlQ2koUo7fb/dz4UP6WQAFy5il4aiXOGEio0ko5FkNrWou+4IkOFsCcNCuNSc5557bjjkkEMMM2kePAN2FAh3jkAtBFS2kBEsaQ4++GBbjIhFllm7gUWWJU+13u+Ee7T0WJoSTirKFc5wzCsnEawLictTvS4KlLzDhRBrHfSVHn744WZTSNMeG0NMO1Q41ESTr/t5x8/Da20EUrlIz9lRge0/VllllbDzzjsbybJxYVYWWzv19cWeigbTMlrKRRJq4TOlWAGeRKgfkMzsJFIlvTi0A9Itgac/hz5S+phPPfVUmyoq0egkfJRm9weHQH+ywqyrvffe27oA9ttvP2sFMYjF0oGQjORxcF9vrbdQTOAi1mUuKu2Fa6gs+FDL+Ly1smLwsSXjIFNpmcwrxtRlww03NFyuvfbabmQ6+C/5m45ATwREuLR8kDXms2+88cbhmmuuMblEPtvdpeSJHS8j/UVVJIUTKuYbGpDqhMzLCicZB5mSdrYXQTtgzv32228fTj/9dNsZlHeKyuBsfPy68xCQbDGWwZYg2DZjAXDooYeaTLYzIqpQSCM4oNx9+eWXluQi+KjwJj+LeIhQlbHtnIFq4pPGtGbUKD4L3UKkXV1d9j/PCRf8VAD4z50jkAcCkjH6ETfffHObDLDrrruGDz74wPrx0/nt7SSDlEelHRzhItbDKMoVrqGyajyjjnLtlFlKUy2fZr7IlX5kpgeylxOr50OmOGU0mOiwP/zHEcgRAcmWyh4VPdtesx0O2hrTmrEGKEJjyzEZQw6K9KGls/0MTuVvyAEnARROqBgbszpOJzkyTkL8zDPPWJ8Ve9cz42lYnELK/+0uvJ2U362YVuSP/lT2eWPq6mabbRaefvrptpNLVSLkEQTKsodMminKFU6orJLEQsdy0tp03W5+SpQs/LzlllvafkGnnHJKdX/2ImrGdsPR09MYBJgxxFRV1l5l73oWWWknl+UbFklBySvKFU6oNH21GVxRiWhmuGRYeiguGOvvsMMONrcaW1PMVxicEpnKT2tQveu+I1AUAsgbsschyxMUHiYC0C3F7CqWiawl00XFqZHhMsEITirKFU6oaGwiDxLRjgRCGnWQVnYYZSSVZtQf/vCH6qQGZSIY6NA99x2BRiGQyp7KI3birK3KymYsD8g+9ri0xdWo+OX5HaVPYWYXEMr+r+cG6xc+yj/YiLXSe2pWkDlopoye0tRnVXVVJtmKpZXS53FtXwSQXWQTH1Jl7ypIh0kn+F1dXW2T+FqVA+nOk1QL11AhFPpR29mRIRx06rMmJU0nBJO0p0eRTY12xtfTViwCIhXJ6lZbbWWmVSgGjAO0siNtcqSPASn8olxxIf9/jKnlMGhX7ZAmsKhEFRku8U8PaZ5MJdU+PzT3qe2zGQcWedaGRabTw+4cBLJ9+8gpE09YsIdxABbtSWW+FZER/2AylS2XeaancEJlUZRvvvmmmoh2IhSRKUsUsuweGxHuv//+1XULlFHSYHXtviNQFgQkm/KJF3KNQqA1AGhtMYWc+yKmssS/3nhAosQdo/4idw4pnFAZ4WcBELlW11CVDjKHTGLiAoLHtiTHHHOMWTSoBmxV4VMa3e88BCBWkQ/Eg4XK9NNPH/bYYw+T9VZHBC4ae+yxq8kgvXm6wgkVkwwWuMW1C8GITOkbRuDYovaEE06wLX1FpqQ3PefanSNQdgSk8Eh2sdtEtlmGE9OqVh4PIU1wUZF28YUTKjMTPvvssyqZ5l0jNEtAIdXrr7/ejuOOO8401GbFxb/rCOSFQFo+ISAOFhQ5/vjjbbddpqum/aki4Ly+n3c4So+UOfZowya8KFc4oZIZLOiqzCl7BtQDNGlhEArtlO2cF1100W6vkYnp0e1Pv3AESo5ALdldYIEFAuupsloaWzFDUCKpkienW/TQtKeccsrC4l44oc4wwwyBWoF1QNvBIUSMFDL4xIro66+/vtXYpK0VBawd8sTTUDwCKEK/+c1vbO1eiBXLnVZwUuBQgiifn3zySZhuuukK644rnFCHDx9u/Rat3PeSCg4Zw/J7jOzTp8SgGzU69905Au2IAESEjDNIxUaS9EOyy0SryTw2qCh3cFJRyk/hLECTnwxolRotWyCo4dLjxRdfDBdddFE48MADq/2mEiz52TD82hFoZQSQa8k25ZlNJCkD2KfiKB9arlIaYRnTK0KlyV+UK5xQiTx2qK1KqABPbcbBKjWHHXZYWHjhhcPyyy9freXSPifO3TkC7YJALdlmZaqll17aWmiU6zLPACT+Kr901cFFmDiqgsg7nwonVCLPSD+mRa3o0qbBzTffHFgsep999qk5E6oV0+dxdgQGigBkxKI/77zzju1NpVWr0rIy0DCLeh6NWeTJXlLjjz9+mGqqqaqfyzvOhRMqM6Ug1WeffdYS0WoanDIDg2AM97fYYoswLC4S7c4R6FQEKBMsTs0MKmxUMYvkHkfeBJUXxsSNxd4h03SmFPfzdPmG1kvMZptttkDfI2CXuY+ll+iboFxyySW2fuQmm2xSFR41h3p7z+87Au2KAGWZRYAw/L/ggguqzeq8CSov/IjvSy+9FGaddVYLsijFrnBCBWDsNGkqt2I/KhmBqQVCw0pSE000UdXGNK/M9nAcgVZEgNX+WUP14osvtjJCGigvZXPEifGPV199NbCdtsi0CIWocEIlMdQK7K7IDqit6K688kqbXbHKKqu0YvQ9zo5A7ghIE2VwdtJJJ7VRfz6i+7l/cAgBEifW3HjvvfcCreUiXeGESmIwpGX+LDVEq7m///3vJiwsGE3zxp0j4AiMRoBpnOxFdfnll3dbBGn0E+U4g3vgICYaFekKJ1Q0VECfaaaZwj333GNpoR+1rH2pipt8toKgabDyyisXmQ8etiPQEgiouUxkdb7ccsvZBJdbb721lGmAg+69917joHRhlCIiWzihoqGSIEB/4oknrC+Da5xIq4iE5REm02UxYF599dXDxBNPnEeQHoYj0PIIZPse2SZ+7bXXtm3SyzjFnFma7DwAB4l7isqEwgmViEOqDEy9+eab1izgGld04uwjg/whbi+//LItrLvWWmtZKFQAqpUHGay/5gi0FQKUB8ozq/uzCJJmT5UpkZg8wj2LLLJI4X28DSFUwJ1lllnMwP/xxx+vYi1ird4oyYmI/qabbrLFdemuwCE8kKo7R8AR+AEBygPlZdppp7XB5xtuuKF00Dz55JPW7TjHHHMUrsQ1jFAx8F9sscUCs43IAB2lQz9GCKKnmXDLLbfYCjtc6yhjfD1OjkCzEWDLFJr99KMyxVPdeY1WQNLviuzhHLTT1KC/KLwaQqia67vqqquGp556KjByjiurhkrcMAJGMLBbc+cIOAJ9I4CCxJ5qlPUyNPulsDF3n1axuu2K5pyGEKp2VQRwjPvpmyw6YX1nf+//khG4hx9+2BaipSlT1rj2ngr/xxFoHAKUDw6mow6L07IfeOCBxn28ly9JM0YxwqifBbJxKt+9vDbk2w0hVMWSWUY0+6+44gqryYpOnL47EB/BIF533313WGaZZXrsYDqQsPxZR6ATEKC8cLD9NGUGE6Vmlm2+rfEOJuUwII4lAq5o5aihhEqC1ltvPavBGHkrOnF8bzDuiy++sJV0vLk/cPSyfVi6TtfL1L2i/N6+1dv9bDwGnurOfoNyrLKMwsSMpM8//9xAaSax0rV433332a4ail/ROTVG0R/ImhlRW9AF8OCDD4Y111yz6M8PKvw33ngjMIhGcx+XTcOgAu2wlyhICLEKFOcQGljWEm6eo2lGvzUDgiwGjM8B4fEuz3COIxzkCB/NiHPyjMERDrYKZhBCcdA303jV+o+wCctdfQhky8bUU09tMwpfe+21MNlkk9XM6/pCHvxTymu67YgfJK98H3yo9b1ZOKFmo8H0TebEs3rTSiut1JCRt2wc+roGeDbgY+GHIlf27isO7fCfhFqkRZogya+//toW+UWDoeJijUq2k8GG8dtvvzVShVh5FiNxDshU2iXhQKoUFA7IT4cIFSJlaxpkbfLJJw/DYr/e8LjtBfvLU8hZE5M1erOEqzjzDXeDQwB8mQRD3+USSywxuECG+BZlmIqYSTlwTZG7nGaj2nBCRWjZ2A7tlAVTmOdfNocwYHuK5uNu4Agg0CxGQdcJzT/WoXz++eetG4VmGKTKM1RYDGSg1cw+++y2yAb97PR3UaFREJgqCPGJLCFRkbQ0WQY6+Z7Imu4kDrbeQcaoIO+66y47h3wJl+/QAplrrrlss0XiMMkkkzS08A0c2fK/Ab4zzzyzDTyTx82opPgmK8SxBvOIESMaClpTGIPCw6ovI0eOtG0UBLoygELTLEdc0Jw0TQ0B6WSnJrbyRlhkryEzhJgpfjS1WK6RhYfRNGeccUYjrq6uLqtAqUSnmGKKamEjv/Udwlf+6176v/6TVgrZonGmzyiOCkvhcP3hhx/a7hF//etfrdAz+HjGGWdYNwGaFRNQ0KzY5oY4Quy4bHqz1/bQ//8ojum9TjrHgP7qq6+uVnyNLkPkzR//+EfjmDnnnLOh0DeFUEnhVlttZTso/v73vzfNBBDK4GhaotVAAjgKYycXkDRfOKdwgAnn4MTC4UyAYK92dpSkiY153HbbbWckCo70aaauFp793av1P2Gm99Pz3r7H7hEcaXMUTZctekgLNotnn322bUTHhnRosCuuuGKYZ555AtcQOE4kLXykFKTf7cRz8oA8pwuH7ppmtPK+/PLLcP3115uyRh70JhdF5E/TCBXzCja8I+FsK4JASjiLSGi9YdIkpYCxxqMXkh9QEw7gQhOekVOmGKLJ49iwbY899qhqdXqe/Kx1/kOozfmtFScqCTRTunnWXXddk8OPP/7YFvO5//77A/vQQ6As/UafHJvUQcoqqKQxDbc5KSvHV8EJTR8ypSxRjhrtmDIOkS+77LKN/nRoGqEyCssaozT76VOlX0uFr+EoJB9ECMgMrX2qQpM80lGnFBCa8hhrs+Ylo7cUGGa9QTTzzjuvEUtKKiKXND/T82YCKA2bOCjOnBPn1NHcp5+flcbAgNk/LD+JvB5//PFGvhtssEFYaqmlbKCLcJXuNJxOO6e8UHZolaAp0i/dyDJEX/q5554btt56a+t/J0/Im0a5hhMq4KpwrbPOOuG0006zAQOEtwwCyUgz8WOUuBMcZFHLMdADeV544YVmqE2+kV8HH3ywNYNrvaN8TUkr+1wjC1f227omDkp3rbgqHTyvc2bacLDb5yuvvBJuvPHGcNRRR4UjjjjCSHXTTTe1gTXkhrAly/LTb5YBA2FRhE+3CITKtM9GOPAWvgw+MiCJrCrvGhEHfaPhhKoP46PpsOndqaeeGlZYYYVSkBiDKGSE+v2UWWm82+mcAp86tqnBRviss86y0XEmN7Cz5ZJLLmm4QED1EEI9z6TfbfR5Gr/0vL94IA9s6UMXwW677WaDcFQ6TFjhPppRVxx8wyyL/niFzTmuGYW8vzTl+T/40MIjnZSloh3fU6WFdnryyScHKjesOJrhmkqoJHizzTYzLeiOO+6w5lUzQEi/Sd8PhUCCrwKRPtNO50onXR3kASPejM7TnKX1gFmTnJ7VdSf7yAWVLuRJZcMA3WWXXWbdICgK22yzje3yICuBTsKOtIIPfe6NcMIWiw26pzbffHP7rIi2EXHQN/5DJ43ysxoffSwMStEvRXO7DI44doqjVv/Tn/5kfaI0YdG0HnnkkbD33nt3I9NOwWOw6WS/9z333NNMxjbaaCPT6tk2h7nkkutsa2Cw32qV9xqljIAr3QvHHnuscUk6Q6vRmDecUCUMApvahcEpmprXXnut/a1ZMc0gNpl5NDojhEvePhjWOmiOMchC3zX9gOyxzsAT5k5oVeRL9iBuyre849lK4aW4EO/0GuyQZ6wDNt54Y+tnBWO0J2ls5AcyLjlvpbTXE1fKDmlUt1k97wzkGeGHjwP/a665xiZ2oJzhkFPli91o0E/DCTUtkDrHMJv9vU866aSAuQpAyAk0XRftY32AoDP9Edfo7xeRPgQ8PTBqp0nKQXMVMyjOyQcc+dLbUUT8WinM3nDRfdKC/CJHYAqxYr6z/fbbW2XFVFsRTirnrYRBX3EFB8oOXWdFDOxSHsEP7PApqzTz6TvFpp2+U+KAS/Okrzjn+d9o5soz1EGE9Zvf/MZMLDCqVu09iGCG/ArmW3yfRTraxangMnLP/GaaoqTvtttuC/vss09VI0VA3Q0dAeRHpjporFgG0D9Nq2C11VYL559/vpFOu+ItQlUFPXREu4cgeZYPZ0CksiHu/nSDryLjN9VFoarE2qwSm0OV2CyqxAUsKtEsxe5xn/8b6eLgTCVOi63E6ZMN/3YR6QQ/sB01alQlVlqVOPOnctVVV3XDVzjLLyIenRKm5Blfh3DlGuznnnvuSrRvrcSN4ywf2gkb0hj3cKrE2VKVaL6UexkifPDU8eqrrxpnRHMpu8f/zXSl0FCpzTmWibOnurq6bEqqmtwNrl+s2UtzjWYEmkaruShMVQ1f50wNxUAd+0A0JVoD4K0aPuu3WprLFF+amdJOiRfXwpdrsL/zzjttARi25cCelb5V8koHz7WyYwoyZYjWXiS43JMCnhxwxIEHHmjdVsxeK4NrOqFm+zv23XdfMyhnaiMC1gw3LC73xgpFFIxmxWGo6UbgaNbTL4295A477GDmacxHz2LOdXoM9dv+fvf+uyy2WLacd955YeeddzbLACxcsLYognyakReUnWmmmaZbRZJnPNQlyBRTJlkwYw+XVlx5fm8gYTWdULORHR7XraRzGRMetMRmOJYfI6NwIp9mxGMo38SWFBLFbOfSSy+1kedWTs9QsCjju8gVBujkzXXXXRe23Xbb6ir3ZYzvQOJE2aEMUUEUQXJgBzdgnUKlxOplfEvHQOKa97OlI1QSuOGGG9palajzMjXJO+F9hRf7uMI777xjGl4raqhYSmwWJ0wwms/iMwsuuKAlN22K9pV+/68xCEAMrMwFoZJnzBpkse1Wdgx8snIXZagoMkVDhRuYdAJXFEXcg8mH0hEq4LCo8NFHH23T+uhjUt9So8iN5cdogrEEWdldig2CRoGkYEKeGOyzKhKCXYRwlx2bMsYPElVeyKcbho0r6Xck76jM03wtYzrSOCmuyB/9p8y6Q0PNwyns1Kepz+QTDPnhCuGI32yloXSECiiQKkup7bTTTuGggw4yTSuPzKknDL7NVhn4f/nLX+p5panPEE8daDk0IzHVufjii80MjchRiHU0NbL+cUOAvKDg4+OQeaarXnDBBbZyFXnIMonka9kdRIcjrqQDO1sGi1jXQHI51DQoHHxwgRPgBjgCJ9kWnkP93lDeLx2hkhgyhoNmK6t/s9ampu8pA4eS6L7e5bssP8bCwmyH2wqOOLPdCIt2Y/vHEnMszoEAlkHIWgHDZsaRfEK7Y1ScpecYtGKRFfbd4r9WccSVMkOZleaIbObl6E7YfffdjayZr0/YRfPBQOOeX2oH+uVenpcA4bOPECOg9MlAEghdIxwZxewWVm8nE8vsiCuj+RiPoxmw9YPMVdRMKnP8PW4/IKCmKnmHBQB5h3VG2eWPCltlFvmjKc7KccRf9/PIY8JCg6fVeNxxx5kJIPfKpjCUjlBVo+EjZPQBMprH1DLmmuMgVpEFft6OjGJPIRbIJQPTbxXxvYHEPxsXsECrYfsOlpFDuxF2abNyIN/wZxuLgGSer3JOlw3kwb5cZ555pk3jVL43SqmoFwHiRZzxR40aZaPvLPk4WKJTOvHTtELUKFdwAYNRfFNHvXFtxHOlI1QyQgcAQG7LL7+8NWfRwuhDAUjup4DnBRbhkpkMTDFYwIK13CuLS+PCOWuXsp4sZmbs3ImTMMsvS9w9Hj0RkKzjS0vlKWSPQRfWpWVhFVya93ajJD/Ei/jT3KdCZ0CKMpqHI2zGBvbaay/jALaeTzHjvEwun1QXnCIyB3szBovojEZz5F4RYCpcwmYpO6wMaHaRsWUQaOKnuLBN8gEHHBB+97vf2T5HZYhfwaLQEcGTxxxsJMjqX4cccoiRConnftkccaK5j4ne2muvbRUDsjjYuEq+UWxYlo+FZdjyG/v0IpSoPPEsX+5kUkemADAr19Dsx6D3yCOPNPvUwWZY5hO9XjKdjYEBdvQsmwMTFoBmiTQM+Ll21x4IiFCQbwz+GeA58cQTreVU1hSyXQ5mhuwQi1O5HUx8eZcDQqWso6HSCgOHIpSowcSxt3dKT6hEHHBxNINoAt16663WXyijf4DnyKv2UoYyAwOjeFZowikedtHkH6b3xYU2rE+JykZxbnK0/PM5IJDmJSRy+OGHW0vppZdestCRc8k8fiNd+l19mwrgkksuMcsYdoaVq6e81AqP9+PiJ2b6d/PNN1uZp+zj6gnTHmzWT0xQS7mYeZU4s8RWmMHXqjPy+T9PFxdhttWn4pbJpVjNhvTFZeAq0VaxEk1Hcl/NJ0/sPKyhI0B+I9uxW6cSt6WxvOee7vNfo52+rzjEiQiVaCpVuf322wcsjwqDdLAqmspxXMujEhUaK+vcS7/Z6PQO5HstoaGmlU0E1rbrwDaVLSeeeOKJbrVW3k0CRiypHZnJUhYXlyyzWWT0KblrfwRigbaxg2eeeSagpVIGOHDN1tj4PjPysHtmsXLFayC5ojRoUI4yjb0pZZztylvJtRyhAi4ZgBE7e/cwSIWdqhzCl6djyTv6KGleN2uxljQ9COzIaJM777zzmgF1+p+ftycCKAnMPFpkkUWqNqqUARFRM1NNmbj88stt4EhdT4OND7I9KppeUabZkofJDWk6+X8whD3Y+AzmvZYjVAkRtRlmVGiQ7OHDrpP6D1LVMRhQsu/8+te/tvUr1ZeqsOVnn8/zmm+kfWYIMFuWUKG46xwEkG3m+WOPWZY1JiA3Wm4QKTsR1EN2KjPylYOkjzJMWWbcgp0ksq1NnpEWq/fK5rccoQKyDjKSDnsMfZmm+uGHH/bIVDJuqI7vMGuFjndqUNWU9QjQUL/N+6ooOKc5hFt00UXN95/OQYDJJmwi+dhjjzUt0ZQn5J5KHgKktUTXk6aa1hOxtPzonLILmTKRh4WRmCUpuVd5zxJsPd9q9DMtR6hZgJi7fsopp1gfDvN7We1GmYSfl2M6HbZwfItw8yDqeuOWpoPV95daaqkBCXC93/Hnyo0ApLX00ksHRr5TmWh0rEV0p59+uo0voJ0O1CkMfOypaXGRPsKkP1b/DzTcZj/f8oSKYDFVj/nP1GoiVYDNM1PoS2UNRja2e/bZZxva9FA6WBbt5ZdftkJF+ppZqPi+u+IRQCsj/2USyMAPJnPIQjPzn6nO7Kqx//77W5NfMloPItJyeRYbU8os6aQMs9leM9NVT/z7eqblCZU+FTKTKW/MZadJFE2Kug0gkYHp0Rcgtf6TsLAY8CqrrGJC9PXXX1cJeyhh1/pe9p4EDO2bmSMMUOCIVys0g7Lp8euBI6C+Q/KeWUn0o0ouBx5a/W8g2+rDF6mzVjAz9Jj4wmyuvmQwLRt6X5UE4wFbbLGFvc/4BEsY4hqRrvoRGNiTLU+oJJcM4hCp0ue58cYbV/tURUjyBwKRwpa/9957m3YAeQ8mvIF8W88iYHyL2jza5IVhcc8rd52DgGQPn24niKnRA1OSdXwWboEM0U51P41jNmd4hjhLjvHpM6WMMtMPMkUzhXxxaVict5JrC0JNAZ9wwgktwyeddFIzvWAbEDKKTM2j5iNcBIm+Hs1cSb8voUjvDfVccWdAbLLJJjMhHGqY/n5rIgABYReNXDfCpYRG+WGKKVOeUSymmGKKusuUNGziTNzZugSNlEEtyBTHt0TQdqMFf9qOUMl0Muicc84Js8wyS1h//fWrG+7llT8rr7yyzVlm5J+FnRvhEDSa/Fqej+tWF75G4NaO30C+0RAb5aSIsCgRMs+gKNthD1T+eJ4xAMokU1RZdhIFCKdvNCpNRX2n7QhVQDFSyGIq9PNgJJwuw5f26wxGoyTz0VJ594QTTrBmuL5blM83WUiakVAc1+0ihEVh1q6GtVBjAAAVRElEQVThsgg1/ZhFuGzZUPmADLFw+e6778Jhhx1mn0brTDVYxYfmvcLhHnLK+yxDCJlCyJRNLHT0v/xWl+m2I1QyWAebnh166KG2Yg+r9lx22WXV0VIymGMwjvfQFFnwlhlUGDcPNqx6vi+BlHDX844/094IFC0Lafng/JprrjE7bGSebq9aRArixEukqDBYxIgyQhnkoEwyzsFzHCqv8ls558Zo5cjXE3dqUaayQYBs7sXAzo477tjNcLiecPSMiBOfrXIJk/UqGX2df/759VjuPoKHZoKGIEccJJC65377I4CFCS2wopzkCp+DZjoyvt9++4UFFlig38/qfWSTtYQZb2CVOIiU1iKO/3gOl/av2o0W/ml7QlWm0dSYaqqpwi677GICwr401LQDdQgCTkLDItRsk8JCwFdeeWUYPnz4QIOs+3niTz8qTt+v+2V/sG0QwBCeAaEiZECap8J+9913wzbbbBNWX331sFmcjcj9et1nn31mCxg999xz1l+KDS0uJdN6w2qV59quyZ8FnszTQd8Nxshso7LuuuvalrcIiPp75GfDqHUtYsVnewa2tGXqHIMFCgc/TzcsmksxMED/mb6fZ/geVjkRSOUJjQ8ZoOLOQwbSsHVOuBwQNwuUUJHvu+++NQlc78gXgmwnjbIRl/aztVy7urqq5RDS1jfySIO+WQa/7QlV/TLy2Xfp2muvNQLESJ9pfNh24uqpfRWOfN6jr1YrirMdCQKvsBC0vBwaNbPB3nzzTQtS38grfA+nfAggP2k+Q1RMXpl88skLiay+xUwsth7h+2effbYNhvYmy3qHCDEgxfRopqMyks+2KNjOqrzg47LXdrMNftqeUGvlEaOL2NKxqMOuu+4ajjnmGJuBVOvZeu4hUPRpYVP37bffWpj0daaCVk84fT1DWNgf8p1XXnkl17D7+q7/Vy4EmHZKBY7WmIcTwaWyigyzFika6vnnn2+mTWiStfo6eV9aJrP46EqjW41xCvpOmRbeSa4jCZUMppanOcOMJ2pROsvff//9QeW9hA2j+0svvdS6ElggN0/TFr6ByRQDX9oFc1CR9ZdaDgERFhEn7+ebbz4boMwzIfoGMsuymCxijlUMqz/JpaSre/jcp68VY32sXihTtNQUZvpsu593HKGSycpo/MUXX9yaKBhLs0Ut3QGYedC86e3oSyhoijE4xYwSdmplRDa1y+ut2dRXmPqP+DI48Pjjj4evvvqqmg797357I4AsPfroo4GJJUNxWbkWURI+munzzz9vxAiZInNZzTR9n+4ydgam7GCFErdBsTLFexwd5yI4He2iMNl+NXHBiUqcXWV7VcWugEocTa/ub8Mz7GvDwXlfTs/FucqVOAhWiTNKKrHpVN0vp7/3+wqb/4hXNF2pRLtAC3Oo4fX3Pf+/uQikssc+S3Gnhkoc+KzK4kDzPw1P8oyPjMZWWiUu2F6J2qbJuWS5lk84yGLsMqvEvtLKmWeeWd3vqrmINffrHViF9Kwzo3DY/HhWvsEKgDn6dKo/9NBDpqXyRr01rmplNFX22qHWx2Qrr6mCDEyhodC35a4zEJBM/fGPfwzLL7+8refAPeR2KE7hIptsJ4SNNgb8DNwqbD2TfidSlpUN9nvCJCpulmmmVTxLa6yTnRNqzH0EBIdAMP+fJgyEyjKAI0aMqM7Xr0dYEETC4aBPlRkidMyvtdZa3fa+sg8O4ofwWaWHfbRo+rvrDATYqQF7Z2xBcZIzuxjkD2EgR+uss45Zj6AAMPDJfTmdI8+UEyxYmMyCDNL9RFmZffbZq0Sa7R5QOB3jN1dBLs/Xo+B026qWZs5TTz1Vies9VuIeN5W4FkC1ScOz/J99h2uc7us8jppW4qinbUdNOL29y/3+nL5Nt8Qaa6xRbfbX825/Yfv/zUdAspP6bK8cbTorcbPIquwQUz3TX6z1XOojL/fee29lzjnntC2qY0vKwu5NNtm6PA6IVeI2LJU47lCJlXk1Lmm4nHeyo9ZxlyCQFQ4E7dhjj61Eo/pKnIdcifvo9CpIEsYkuKqQUiiiPV8l2uRVos2qkTPP60i/m76fPec53hk1alQlTnet0K+WDSP7jl+3DgKpHOg87hJhlXG0PzYSHUhqFIbkBp/xAvo8kWlkEdnUc5IlfL3DeEC0Sa3EyQSVaGJYScmX59yNRsAJdTQWdibBki8Bi2YkldgNUIldApXYl1WJdqZVIdSz+Fmn/yS0FI6ZZ57ZtAIGF/Q/voQ4G0Z6rfjgn3TSSTZIwYCC3k+f9fPWQ0D5iLyQx3H6ZiWaylXixnVVWRlIqiRfkhtkBU03zuyzyljf4//0nOu4ulll5MiRJq9xEkyFMsAzxE3x49rdaAScUEdjYWcISPaQMCJg0c7UtIW4WVolbunbrRuglnDpXfk8ExfYrSy33HKVuKVKJXbqV4VTpJuJUrdL3ics/Gg6VYlbXFeiIXU3LaPbC37RUgiQrxzIAs3sOK25EgeiLK/130ASpHcIL5pDVeJuuZW4pGVlVGzhpDKpc3y+G3dWrSyzzDIm63G3X9NqFZbkj2vO3Y1GwAl1NBZ2hpCkTkKU+mgNccXySty+uhInBxhBpjV2+mz2XIJLsynOj7ZmVFxn0gRWgipf76bx4Vz38SHk6aefvhIHv7rdT5/Jvu/X5UEgzSedK/+jkbzl7ZNPPtmN/PqKvcJIfZr4cWagNfEhaPr00/85l1xS2SPTyDYy/vnnn/d4NvtuX/HptP+cUAeY46kwxWXNzM4UQotLk5ktH4KZJdf0EyosEuJoCG0DA9EUqkIfGe/qfZ7tzxEOZEp/KvFRuGk8+wvD/28eAsovEZryLZrumXZIi0jP6L++Ysszkh/8UVETpatqttlmq8Q59kacWRnjmq6AuHC0EXi0SKnE6c0WDuG5qx8BJ9T6sbIns4LPNaOlWAPQN4omEBeWqNb4WYFUoVA4+GgBcStdE2YGC9Ao9H/2/Wx0+Z/n0SbmmmsuK0DcU6Hq7/1seH7dWATInzSvOcewnn5TjOYlCzyno68YKrw4hbQStxgxmYo2pmaEj0zof77DOS0lZI4KGRmWFYrihO+ufgScUOvHyp6UUKcCxzmCH+c+G6lhinLxxRdXm1bpJ/ReNhyu48pXpkksu+yyFTQUFYD0/ew57xEmg2SbbLJJZZFFFqlaIuhb2Xf8ujwIKP8kD4yoM1tpgw02qI6m65l68pNn4gIq1reOVhqN7rsRtr5Dsx8ZpRLmQHYhYf2vb+G7qx8BJ9T6sbInJdwSvKwPsaEZIMxoGRJUkWP6PMKaXnMeDacrcQ0A68PaZ599rCmWfaa3a7SNtdde2wYeMO/iuVrfGGCS/fGcEaiVL+QTZIqWuOaaa1orp7d81v1s3tLSGTFihMkOZk5c6xn5yOfll19usomMMt0626dKcvUNfHf1I+CEWj9WdT2JACK8jMCfccYZRqzzzDNPJU4V7dEVICFPhZd7kO8zzzxjo7F0I8R90M2ERc/LF0mnEYNU4+LZNhmBAQaeTQ8vIClajT/P5jXX5GNciNkqQvovRYTK5zSWPJ/mJ+dYnzASD0HGVfErcVaVPZN+i24o5CiuVGXP0cxHVnjGXX4IOKHmh6WFpEIgoUdopbFiw3riiSea1iky1HMSfl3zP90IDErEqX2VxRZbrMdsLb2TJoH30TjiFEUb7GKgirC4r2+mz/t5YxFQnuGTJ/gMAMX9yazLBnlRXuFzZJ3+Rz7uueceI1FkC8LkHmGS1xxYpMQ1Sq2PFDnqTSPNfsOvB4eAE+rgcOv1rWyBUaGgf4rmP32czDiJa06auRU2fzyTvse53uMc7QLDbmZZrbjiij3sX9PIKCy+F7e6tpWA1I+mb6TP+3ljEVAe4EN4zHTDyJ5BxbQPk/8kA2kMeQ/SxJQKY/tpppmmcsQRR1iLSM/zLgNbmOVNN910Nl2UZj7NfT1DODpPw/fzoSHghDo0/Hq8nRaY7DkPI+xYBcSFJSpxvUmbo/3ggw9as01CrvcQ+PQc05a4XqW9F1f6sfnUEHJv7/H+1VdfbX1qBxxwQPUbClN+j0T4jVwREM6pTzP94IMPtryB7JSP6TPZc2QHImUNh7hJn03oSGfbQbQPP/ywyRSyhYygwfJeGhZygdO9XBPb4YE5oTZYABBiaQY09ZgGiObJohNxywhromULgARfPoMXmNRQaNBYKTQU0DRsvqFwNEOG/rXXX3/dvq+w8N0VhwD4Kh+U73HVqEpXV5e1Vugr1/2srzyCKO+7774KtsoQadwWvbpmKWHT50pTnllQyBIDUsiW3i8udR5yFgEn1CwiBV+r0EjYuWZknwEsVrWiCcdMFab+QZL8r2fx0/fRTuJe6TYDBlMbuhTSZp2exadvjhWqKHAscEEhVUEvOMkdHXyaZ2BOHzqLklCRZu2V03wmb+gCiLs/2Mg/+UY30UcffWT5hmyw4lPc4tnyFNmhQkaW0nwnTHeNQ8AJtXFY25dUaBD6tLCpEDBCG7ejNmJlRPbII4+sxL2uejQJ9Tw+BZPpqww6sHr6iGg6g9kUhZL/8UWeDzzwgA2AQMAUSO67Kw4B8hiMtRQkg0+0KJT38sknPUsLhJl39K1icA8JYzUCISMLyASywfRQJoQgM2lffCobhOmucQg4oTYOa/sSAl7PgUbJqC0LWcRFf22BjPPOO69qIaBCo0KIT4FjcgDdAFNOOWUFExxWt0LTUYHlObRY+u/oMoC8MdlJ/+8vfg2GrPSfS7FLz8ER07W4YZ1hTT82Fhg8k32OvGOWEnbE5AsLosTNI62Vwkg9ZncsqIMsIBMXXXSRVaT95RX/u2scAj/iUx2zmnYLJFTZEQuCrfrPLgFR27SN/9hRkvO4p1SItqYhEmePbXq1rW9cFyBEcy3bdJBV1OPeViHOpApx3QHb8ZXwY2G31ddj/1yIM3Ns+1/t9048eI/n5Fi1Haeth3W/k/1sfoEFeRYHEMPJJ59sO4dGk7cQ58mH2NTvBhXPsVtorDht65Goydoq+FtttVUgH2699VbbLC9qt7YtCXnOwRYlcuSJ54fQaL7vhNr8POgWAxVQbopU0wfeeOMNK2TszhqbhiFOGrBCyHYU7Dcl0tM7FNJoVRBGjhwZYnM/RDMaI1cIlC1aIM1oqxoOPPDA8Oyzz4a4MnyIA14hDn7QerFgUmL1Aixkf/DBSJUO5xBpXKc2xJH7EJv3IbYEQtxYr/oMz/IM/7N/E/kZBwttTye2CI8LmISbbrrJ8mKqqaayvIpaq1WE+jJ5kMqGE6qQab7vhNr8POgWA5GYbqqwZomS+2+//bZtKsgmaXH0PsT+0xDXAQjRrMb2+fnxj3/cTcv85ptvQjSjss0DIc/YRxfYaI09heJgWIgjw6ZJsVcVm8HFQSwLh2+nhdgLsHLnh/3IqLTi/PkQF8YxrTKucxuiDagRKU+SV2iiEGjskrFn4/x5I8s4uynErUWs0oNc48w4qyDj9FOr/PQl4Z+95r7nh1Bpvu+E2vw86BYDEaoKia71EPd1L9VS0Hpif6ltmhZtFY1I48hviAtQ20ETUsRIWLFfzsgYTZcmJRppXFDYNidkozbIAaKGdGmCUsDHGWccC1dxSb+ve6mvNKT3ynYuLAcaL9L+/fffW5cKO9DG1ewNIyqhGWecMUCyVExsYkcLga4aNNC4H1MYe+yxA3kE7rEvNUDAVGzkFa0G8il1fItWQq24tgLGaVra/dwJtQ1yOFvQKMwU1jvuuCPEEWXTXiFJ+l4hzbjbQIiDVqbZUFDjoFWIAyLW1KRbIA6IhTiKHCDkaEEQorG4dS9Q4NlumCYqhZ535USu8nW/7AU+ix3xzqaBa54jLZyDR1ypySowcNws7kRKFwpdMGBOn/TTTz8dxh133BBXHgs//elPrV/1xRdfDNHsyXbWjQNLYYUVVjAypSWRurJjlsbVz7sj4ITaHY+Wu6pFCEoEgx4UzjiyHB599FFrWuKzHfFEE00UaHZG8ykjyDnmmMO2EuZduhIYEEGziobnRiZoTp9++qlpXmhYdC3QVdDV1WXvpeSq78svM0EIvyyJEnfucVBBUdHQZKd5TmVClwhkGY3qQ7QZDi+88IKRJhUXBDnmmGNaX+kXX3xhWn40ujfMGKAab7zxqlpore+WGS/lqfu1EXBCrY1Ly9yFELKFkmscBV/nShD3olG4NTnRtOK+WNZcpX+VASuIFU2WZijnPA8B33///fYsBPvxxx8byaLZQsw8C8FidUAXAe9wyJWdIESqxJcmOA4ribibgmnu0c7TLCOoSBj4izafZiEx1lhjVfsvIUn2rMePtqNWScV1G0KcARd4DjzSvNB1ipP+76tyssj5T2kRcEItbdbUH7GUEHgLAsve6ys0CnI0GLdmKtpW3KfKtNRoTB6iTaSNMEMSaGRYFUCidClwoJm99tpr1txFI0aTZVQbjYz+QvoN0daIU0oefcUn+58IeSBpIgzS1dc3+Z8wow2ojapTwSj9NN/5DxLFjTHGGFWy5R6kCg4MBIIJxEnFEo3te3wzmx/ZeKX/K632Uf9pOQScUFsuy4qNsEiLQk9zFsLkoP+PUWhGq+lCmGSSSYw8sA4YFu0rIV4GadBeaeZCymh5kCzPMHotUoaYZQ9LaiCRvoivvxRnCSr7PHEgXWifdGdgJhZ3RDDNHOsI7HHRtiFNDtKBlohmyXsTTDCBpYHBJrpJiD8mUTTv9W35Sk82Dn7dGQg4oXZGPtedSsinL3Ljfwat6AaAYOWj4UKmkDDPTDzxxEa6NIG5jxUCjrDRCCEgSBnrAgZ2ODiHpLiPpksY448/vlkXYGGQNrEhR/o2CYvuCuIEkaNV8z2sGNAyObim/5cDspSDNIkPYfNN4kDFQLcFB6SPWROEWsuRBlwWL9cya6HVGfecUDsjn+tOZZZQU82LQLLX6T39B3mi9WEqBJnFRVxsdJv79DNCfpAgWmGcBmvECNGJoBRZactc12oWZ//nOQ0I0SyHCCFkfEbaMR2DMPEhTwznaaLTL5rtt1Ra0jhliZPv6X/+0ztOqCDTmc4JtTPzvd9Up2SVPpwSG/dFIukznGefy/6fXhMGhArJ4kO0aJ5ooGiikDwHTlolxPmTn/zEDjRXtExIEyLVt+Wn3xrMea1wat1T2PznrjMRcELtzHz3VDsCjkABCIy2bSkgcA/SEXAEHIFOQsAJtZNy29PqCDgChSLghFoovB64I+AIdBICTqidlNueVkfAESgUASfUQuH1wB0BR6CTEPg/sbsbY6wTdowAAAAASUVORK5CYII=;" parent="1" vertex="1">
                    <mxGeometry x="516.53" y="950" width="340" height="288" as="geometry"/>
                </mxCell>
                <mxCell id="60" value="&lt;b style=&quot;font-size: 16px&quot;&gt;Nacos On KubeGems&lt;/b&gt;" style="text;html=1;align=center;verticalAlign=middle;resizable=0;points=[];autosize=1;strokeColor=none;fillColor=none;fontSize=16;" parent="1" vertex="1">
                    <mxGeometry x="596.53" y="954" width="180" height="20" as="geometry"/>
                </mxCell>
                <mxCell id="61" value="&lt;b style=&quot;font-size: 14px;&quot;&gt;Service / DataId&lt;/b&gt;" style="text;html=1;align=center;verticalAlign=middle;resizable=0;points=[];autosize=1;strokeColor=none;fillColor=none;fontSize=14;" parent="1" vertex="1">
                    <mxGeometry x="629.53" y="1184" width="120" height="20" as="geometry"/>
                </mxCell>
                <mxCell id="62" value="&lt;b style=&quot;font-size: 14px;&quot;&gt;Group&lt;br style=&quot;font-size: 14px;&quot;&gt;kubegems(env)&lt;/b&gt;" style="text;html=1;align=center;verticalAlign=middle;resizable=0;points=[];autosize=1;strokeColor=none;fillColor=none;fontSize=14;" parent="1" vertex="1">
                    <mxGeometry x="629.53" y="1106" width="120" height="40" as="geometry"/>
                </mxCell>
                <mxCell id="63" value="Namespace&lt;br style=&quot;font-size: 14px&quot;&gt;sha1(&quot;kubegems&quot; + tenant + project)" style="text;html=1;align=center;verticalAlign=middle;resizable=0;points=[];autosize=1;strokeColor=none;fillColor=none;fontSize=14;fontStyle=1" parent="1" vertex="1">
                    <mxGeometry x="559.53" y="1046" width="260" height="40" as="geometry"/>
                </mxCell>
                <mxCell id="178" value="" style="group" parent="1" vertex="1" connectable="0">
                    <mxGeometry x="164" y="1420.0017647058824" width="384" height="306.99823529411765" as="geometry"/>
                </mxCell>
                <mxCell id="71" value="" style="rounded=0;whiteSpace=wrap;html=1;fontSize=14;fontStyle=1" parent="178" vertex="1">
                    <mxGeometry y="10.998235294117649" width="384" height="296" as="geometry"/>
                </mxCell>
                <mxCell id="74" value="" style="rounded=0;whiteSpace=wrap;html=1;fontSize=14;fontStyle=1" parent="178" vertex="1">
                    <mxGeometry x="13.529999999999973" y="49.99823529411765" width="173.47" height="118" as="geometry"/>
                </mxCell>
                <mxCell id="79" value="dataId" style="rounded=0;whiteSpace=wrap;html=1;fontSize=14;fontStyle=1" parent="178" vertex="1">
                    <mxGeometry x="27" y="86.99823529411765" width="69" height="31" as="geometry"/>
                </mxCell>
                <mxCell id="80" value="dataId" style="rounded=0;whiteSpace=wrap;html=1;fontSize=14;fontStyle=1" parent="178" vertex="1">
                    <mxGeometry x="27" y="124.49823529411765" width="69" height="31" as="geometry"/>
                </mxCell>
                <mxCell id="81" value="dataId" style="rounded=0;whiteSpace=wrap;html=1;fontSize=14;fontStyle=1" parent="178" vertex="1">
                    <mxGeometry x="101" y="86.99823529411765" width="69" height="31" as="geometry"/>
                </mxCell>
                <mxCell id="82" value="dataId" style="rounded=0;whiteSpace=wrap;html=1;fontSize=14;fontStyle=1" parent="178" vertex="1">
                    <mxGeometry x="101" y="124.49823529411765" width="69" height="31" as="geometry"/>
                </mxCell>
                <mxCell id="84" value="&lt;p class=&quot;p1&quot;&gt;Environment&lt;/p&gt;" style="text;whiteSpace=wrap;html=1;fontSize=14;fontStyle=1" parent="178" vertex="1">
                    <mxGeometry x="20.997058823529528" y="38" width="99" height="59" as="geometry"/>
                </mxCell>
                <mxCell id="85" value="" style="rounded=0;whiteSpace=wrap;html=1;fontSize=14;fontStyle=1" parent="178" vertex="1">
                    <mxGeometry x="197" y="49.99823529411765" width="173.47" height="118" as="geometry"/>
                </mxCell>
                <mxCell id="86" value="dataId" style="rounded=0;whiteSpace=wrap;html=1;fontSize=14;fontStyle=1" parent="178" vertex="1">
                    <mxGeometry x="210.47000000000003" y="86.99823529411765" width="69" height="31" as="geometry"/>
                </mxCell>
                <mxCell id="87" value="dataId" style="rounded=0;whiteSpace=wrap;html=1;fontSize=14;fontStyle=1" parent="178" vertex="1">
                    <mxGeometry x="210.47000000000003" y="124.49823529411765" width="69" height="31" as="geometry"/>
                </mxCell>
                <mxCell id="88" value="dataId" style="rounded=0;whiteSpace=wrap;html=1;fontSize=14;fontStyle=1" parent="178" vertex="1">
                    <mxGeometry x="284.47" y="86.99823529411765" width="69" height="31" as="geometry"/>
                </mxCell>
                <mxCell id="89" value="dataId" style="rounded=0;whiteSpace=wrap;html=1;fontSize=14;fontStyle=1" parent="178" vertex="1">
                    <mxGeometry x="284.47" y="124.49823529411765" width="69" height="31" as="geometry"/>
                </mxCell>
                <mxCell id="90" value="&lt;p class=&quot;p1&quot;&gt;Environment&lt;/p&gt;" style="text;whiteSpace=wrap;html=1;fontSize=14;fontStyle=1" parent="178" vertex="1">
                    <mxGeometry x="204.46705882352956" y="38" width="99" height="59" as="geometry"/>
                </mxCell>
                <mxCell id="110" value="" style="rounded=0;whiteSpace=wrap;html=1;fontSize=14;fontStyle=1" parent="178" vertex="1">
                    <mxGeometry x="13.529999999999973" y="175.99823529411765" width="173.47" height="118" as="geometry"/>
                </mxCell>
                <mxCell id="111" value="dataId" style="rounded=0;whiteSpace=wrap;html=1;fontSize=14;fontStyle=1" parent="178" vertex="1">
                    <mxGeometry x="27" y="212.99823529411765" width="69" height="31" as="geometry"/>
                </mxCell>
                <mxCell id="112" value="dataId" style="rounded=0;whiteSpace=wrap;html=1;fontSize=14;fontStyle=1" parent="178" vertex="1">
                    <mxGeometry x="27" y="250.49823529411765" width="69" height="31" as="geometry"/>
                </mxCell>
                <mxCell id="113" value="dataId" style="rounded=0;whiteSpace=wrap;html=1;fontSize=14;fontStyle=1" parent="178" vertex="1">
                    <mxGeometry x="101" y="212.99823529411765" width="69" height="31" as="geometry"/>
                </mxCell>
                <mxCell id="114" value="dataId" style="rounded=0;whiteSpace=wrap;html=1;fontSize=14;fontStyle=1" parent="178" vertex="1">
                    <mxGeometry x="101" y="250.49823529411765" width="69" height="31" as="geometry"/>
                </mxCell>
                <mxCell id="115" value="&lt;p class=&quot;p1&quot;&gt;Environment&lt;/p&gt;" style="text;whiteSpace=wrap;html=1;fontSize=14;fontStyle=1" parent="178" vertex="1">
                    <mxGeometry x="20.997058823529528" y="164" width="99" height="59" as="geometry"/>
                </mxCell>
                <mxCell id="116" value="" style="rounded=0;whiteSpace=wrap;html=1;fontSize=14;fontStyle=1" parent="178" vertex="1">
                    <mxGeometry x="197" y="175.99823529411765" width="173.47" height="118" as="geometry"/>
                </mxCell>
                <mxCell id="117" value="dataId" style="rounded=0;whiteSpace=wrap;html=1;fontSize=14;fontStyle=1" parent="178" vertex="1">
                    <mxGeometry x="210.47000000000003" y="212.99823529411765" width="69" height="31" as="geometry"/>
                </mxCell>
                <mxCell id="118" value="dataId" style="rounded=0;whiteSpace=wrap;html=1;fontSize=14;fontStyle=1" parent="178" vertex="1">
                    <mxGeometry x="210.47000000000003" y="250.49823529411765" width="69" height="31" as="geometry"/>
                </mxCell>
                <mxCell id="119" value="dataId" style="rounded=0;whiteSpace=wrap;html=1;fontSize=14;fontStyle=1" parent="178" vertex="1">
                    <mxGeometry x="284.47" y="212.99823529411765" width="69" height="31" as="geometry"/>
                </mxCell>
                <mxCell id="120" value="dataId" style="rounded=0;whiteSpace=wrap;html=1;fontSize=14;fontStyle=1" parent="178" vertex="1">
                    <mxGeometry x="284.47" y="250.49823529411765" width="69" height="31" as="geometry"/>
                </mxCell>
                <mxCell id="121" value="&lt;p class=&quot;p1&quot;&gt;Environment&lt;/p&gt;" style="text;whiteSpace=wrap;html=1;fontSize=14;fontStyle=1" parent="178" vertex="1">
                    <mxGeometry x="204.46705882352956" y="164" width="99" height="59" as="geometry"/>
                </mxCell>
                <mxCell id="124" value="&lt;p class=&quot;p1&quot;&gt;Project&lt;/p&gt;" style="text;whiteSpace=wrap;html=1;fontSize=14;fontStyle=1" parent="178" vertex="1">
                    <mxGeometry x="7.997058823529528" width="99" height="59" as="geometry"/>
                </mxCell>
                <mxCell id="179" value="" style="group" parent="1" vertex="1" connectable="0">
                    <mxGeometry x="569" y="1420.0017647058824" width="384" height="306.99823529411765" as="geometry"/>
                </mxCell>
                <mxCell id="180" value="" style="rounded=0;whiteSpace=wrap;html=1;fontSize=14;fontStyle=1" parent="179" vertex="1">
                    <mxGeometry y="10.998235294117649" width="384" height="296" as="geometry"/>
                </mxCell>
                <mxCell id="181" value="" style="rounded=0;whiteSpace=wrap;html=1;fontSize=14;fontStyle=1" parent="179" vertex="1">
                    <mxGeometry x="13.529999999999973" y="49.99823529411765" width="173.47" height="118" as="geometry"/>
                </mxCell>
                <mxCell id="182" value="dataId" style="rounded=0;whiteSpace=wrap;html=1;fontSize=14;fontStyle=1" parent="179" vertex="1">
                    <mxGeometry x="27" y="86.99823529411765" width="69" height="31" as="geometry"/>
                </mxCell>
                <mxCell id="183" value="dataId" style="rounded=0;whiteSpace=wrap;html=1;fontSize=14;fontStyle=1" parent="179" vertex="1">
                    <mxGeometry x="27" y="124.49823529411765" width="69" height="31" as="geometry"/>
                </mxCell>
                <mxCell id="184" value="dataId" style="rounded=0;whiteSpace=wrap;html=1;fontSize=14;fontStyle=1" parent="179" vertex="1">
                    <mxGeometry x="101" y="86.99823529411765" width="69" height="31" as="geometry"/>
                </mxCell>
                <mxCell id="185" value="dataId" style="rounded=0;whiteSpace=wrap;html=1;fontSize=14;fontStyle=1" parent="179" vertex="1">
                    <mxGeometry x="101" y="124.49823529411765" width="69" height="31" as="geometry"/>
                </mxCell>
                <mxCell id="186" value="&lt;p class=&quot;p1&quot;&gt;Environment&lt;/p&gt;" style="text;whiteSpace=wrap;html=1;fontSize=14;fontStyle=1" parent="179" vertex="1">
                    <mxGeometry x="20.997058823529528" y="38" width="99" height="59" as="geometry"/>
                </mxCell>
                <mxCell id="187" value="" style="rounded=0;whiteSpace=wrap;html=1;fontSize=14;fontStyle=1" parent="179" vertex="1">
                    <mxGeometry x="197" y="49.99823529411765" width="173.47" height="118" as="geometry"/>
                </mxCell>
                <mxCell id="188" value="dataId" style="rounded=0;whiteSpace=wrap;html=1;fontSize=14;fontStyle=1" parent="179" vertex="1">
                    <mxGeometry x="210.47000000000003" y="86.99823529411765" width="69" height="31" as="geometry"/>
                </mxCell>
                <mxCell id="189" value="dataId" style="rounded=0;whiteSpace=wrap;html=1;fontSize=14;fontStyle=1" parent="179" vertex="1">
                    <mxGeometry x="210.47000000000003" y="124.49823529411765" width="69" height="31" as="geometry"/>
                </mxCell>
                <mxCell id="190" value="dataId" style="rounded=0;whiteSpace=wrap;html=1;fontSize=14;fontStyle=1" parent="179" vertex="1">
                    <mxGeometry x="284.47" y="86.99823529411765" width="69" height="31" as="geometry"/>
                </mxCell>
                <mxCell id="191" value="dataId" style="rounded=0;whiteSpace=wrap;html=1;fontSize=14;fontStyle=1" parent="179" vertex="1">
                    <mxGeometry x="284.47" y="124.49823529411765" width="69" height="31" as="geometry"/>
                </mxCell>
                <mxCell id="192" value="&lt;p class=&quot;p1&quot;&gt;Environment&lt;/p&gt;" style="text;whiteSpace=wrap;html=1;fontSize=14;fontStyle=1" parent="179" vertex="1">
                    <mxGeometry x="204.46705882352956" y="38" width="99" height="59" as="geometry"/>
                </mxCell>
                <mxCell id="193" value="" style="rounded=0;whiteSpace=wrap;html=1;fontSize=14;fontStyle=1" parent="179" vertex="1">
                    <mxGeometry x="13.529999999999973" y="175.99823529411765" width="173.47" height="118" as="geometry"/>
                </mxCell>
                <mxCell id="194" value="dataId" style="rounded=0;whiteSpace=wrap;html=1;fontSize=14;fontStyle=1" parent="179" vertex="1">
                    <mxGeometry x="27" y="212.99823529411765" width="69" height="31" as="geometry"/>
                </mxCell>
                <mxCell id="195" value="dataId" style="rounded=0;whiteSpace=wrap;html=1;fontSize=14;fontStyle=1" parent="179" vertex="1">
                    <mxGeometry x="27" y="250.49823529411765" width="69" height="31" as="geometry"/>
                </mxCell>
                <mxCell id="196" value="dataId" style="rounded=0;whiteSpace=wrap;html=1;fontSize=14;fontStyle=1" parent="179" vertex="1">
                    <mxGeometry x="101" y="212.99823529411765" width="69" height="31" as="geometry"/>
                </mxCell>
                <mxCell id="197" value="dataId" style="rounded=0;whiteSpace=wrap;html=1;fontSize=14;fontStyle=1" parent="179" vertex="1">
                    <mxGeometry x="101" y="250.49823529411765" width="69" height="31" as="geometry"/>
                </mxCell>
                <mxCell id="198" value="&lt;p class=&quot;p1&quot;&gt;Environment&lt;/p&gt;" style="text;whiteSpace=wrap;html=1;fontSize=14;fontStyle=1" parent="179" vertex="1">
                    <mxGeometry x="20.997058823529528" y="164" width="99" height="59" as="geometry"/>
                </mxCell>
                <mxCell id="199" value="" style="rounded=0;whiteSpace=wrap;html=1;fontSize=14;fontStyle=1" parent="179" vertex="1">
                    <mxGeometry x="197" y="175.99823529411765" width="173.47" height="118" as="geometry"/>
                </mxCell>
                <mxCell id="200" value="dataId" style="rounded=0;whiteSpace=wrap;html=1;fontSize=14;fontStyle=1" parent="179" vertex="1">
                    <mxGeometry x="210.47000000000003" y="212.99823529411765" width="69" height="31" as="geometry"/>
                </mxCell>
                <mxCell id="201" value="dataId" style="rounded=0;whiteSpace=wrap;html=1;fontSize=14;fontStyle=1" parent="179" vertex="1">
                    <mxGeometry x="210.47000000000003" y="250.49823529411765" width="69" height="31" as="geometry"/>
                </mxCell>
                <mxCell id="202" value="dataId" style="rounded=0;whiteSpace=wrap;html=1;fontSize=14;fontStyle=1" parent="179" vertex="1">
                    <mxGeometry x="284.47" y="212.99823529411765" width="69" height="31" as="geometry"/>
                </mxCell>
                <mxCell id="203" value="dataId" style="rounded=0;whiteSpace=wrap;html=1;fontSize=14;fontStyle=1" parent="179" vertex="1">
                    <mxGeometry x="284.47" y="250.49823529411765" width="69" height="31" as="geometry"/>
                </mxCell>
                <mxCell id="204" value="&lt;p class=&quot;p1&quot;&gt;Environment&lt;/p&gt;" style="text;whiteSpace=wrap;html=1;fontSize=14;fontStyle=1" parent="179" vertex="1">
                    <mxGeometry x="204.46705882352956" y="164" width="99" height="59" as="geometry"/>
                </mxCell>
                <mxCell id="205" value="&lt;p class=&quot;p1&quot;&gt;Project&lt;/p&gt;" style="text;whiteSpace=wrap;html=1;fontSize=14;fontStyle=1" parent="179" vertex="1">
                    <mxGeometry x="7.997058823529528" width="99" height="59" as="geometry"/>
                </mxCell>
                <mxCell id="207" value="&lt;b style=&quot;font-size: 16px&quot;&gt;Tenant&lt;/b&gt;" style="text;html=1;align=center;verticalAlign=middle;resizable=0;points=[];autosize=1;strokeColor=none;fillColor=none;fontSize=16;" parent="1" vertex="1">
                    <mxGeometry x="151" y="1390" width="61" height="23" as="geometry"/>
                </mxCell>
            </root>
        </mxGraphModel>
    </diagram>
</mxfile>